<?xml version="1.0" encoding="UTF-8" standalone="no"?>
<!-- Created with Inkscape (http://www.inkscape.org/) -->

<svg
   xmlns:dc="http://purl.org/dc/elements/1.1/"
   xmlns:cc="http://creativecommons.org/ns#"
   xmlns:rdf="http://www.w3.org/1999/02/22-rdf-syntax-ns#"
   xmlns:svg="http://www.w3.org/2000/svg"
   xmlns="http://www.w3.org/2000/svg"
   xmlns:xlink="http://www.w3.org/1999/xlink"
   xmlns:sodipodi="http://sodipodi.sourceforge.net/DTD/sodipodi-0.dtd"
   xmlns:inkscape="http://www.inkscape.org/namespaces/inkscape"
   width="108"
   height="36"
   id="svg3250"
   version="1.1"
   inkscape:version="0.48.2 r9819"
   sodipodi:docname="addressbook-toolbar.svg.2012_08_27_23_09_48.0.svg"
   inkscape:export-filename="/home/andreasn/Work/mozilla-messaging/pinstripe/addressbook-toolbar.png"
   inkscape:export-xdpi="90"
   inkscape:export-ydpi="90">
  <defs
     id="defs3252">
    <linearGradient
       id="linearGradient7416"
       inkscape:collect="always">
      <stop
         id="stop7418"
         offset="0"
         style="stop-color:#000000;stop-opacity:0.749" />
      <stop
         id="stop7420"
         offset="1"
         style="stop-color:#000000;stop-opacity:0.5" />
    </linearGradient>
    <linearGradient
       id="linearGradient4507-0">
      <stop
         id="stop4509-1"
         offset="0"
         style="stop-color:#707d85;stop-opacity:1;" />
      <stop
         id="stop4511-05"
         offset="1"
         style="stop-color:#4c565e;stop-opacity:1" />
    </linearGradient>
    <linearGradient
       id="linearGradient4507-0-7">
      <stop
         id="stop4509-1-4"
         offset="0"
         style="stop-color:#707d85;stop-opacity:1;" />
      <stop
         id="stop4511-05-8"
         offset="1"
         style="stop-color:#4c565e;stop-opacity:1" />
    </linearGradient>
    <linearGradient
       id="linearGradient5611"
       inkscape:collect="always">
      <stop
         id="stop5613"
         offset="0"
         style="stop-color:#000000;stop-opacity:1" />
      <stop
         id="stop5615"
         offset="1"
         style="stop-color:#000000;stop-opacity:0" />
    </linearGradient>
    <linearGradient
       y2="30.375229"
       x2="-267.5"
       y1="21.8125"
       x1="-267.5"
       gradientTransform="translate(306.9567,-18.987883)"
       gradientUnits="userSpaceOnUse"
       id="linearGradient4524"
       xlink:href="#linearGradient5367"
       inkscape:collect="always" />
    <linearGradient
       inkscape:collect="always"
       id="linearGradient5367">
      <stop
         style="stop-color:#000000;stop-opacity:0.7"
         offset="0"
         id="stop5369" />
      <stop
         style="stop-color:#000000;stop-opacity:0.5"
         offset="1"
         id="stop5371" />
    </linearGradient>
    <linearGradient
       inkscape:collect="always"
       xlink:href="#linearGradient5611-3"
       id="linearGradient8333-1-8"
       x1="-229.13565"
       y1="22.512939"
       x2="-229.13565"
       y2="25.091425"
       gradientUnits="userSpaceOnUse"
       gradientTransform="translate(25.854966,-0.78777466)" />
    <linearGradient
       id="linearGradient5611-3"
       inkscape:collect="always">
      <stop
         id="stop5613-8"
         offset="0"
         style="stop-color:#000000;stop-opacity:1" />
      <stop
         id="stop5615-7"
         offset="1"
         style="stop-color:#000000;stop-opacity:0" />
    </linearGradient>
    <linearGradient
       y2="25.091425"
       x2="-229.13565"
       y1="22.512939"
       x1="-229.13565"
       gradientTransform="translate(25.854966,-0.78777466)"
       gradientUnits="userSpaceOnUse"
       id="linearGradient4494"
       xlink:href="#linearGradient5611-3"
       inkscape:collect="always" />
    <linearGradient
       inkscape:collect="always"
       id="linearGradient5367-4">
      <stop
         style="stop-color:#000000;stop-opacity:0.7"
         offset="0"
         id="stop5369-8" />
      <stop
         style="stop-color:#000000;stop-opacity:0.5"
         offset="1"
         id="stop5371-2" />
    </linearGradient>
    <linearGradient
       id="linearGradient5611-3-4"
       inkscape:collect="always">
      <stop
         id="stop5613-7"
         offset="0"
         style="stop-color:#000000;stop-opacity:1" />
      <stop
         id="stop5615-3"
         offset="1"
         style="stop-color:#000000;stop-opacity:0" />
    </linearGradient>
    <linearGradient
       y2="6.2057195"
       x2="69.803185"
       y1="2.9203279"
       x1="69.803185"
       gradientUnits="userSpaceOnUse"
       id="linearGradient4042"
       xlink:href="#linearGradient5611-3-4"
       inkscape:collect="always" />
    <linearGradient
       inkscape:collect="always"
       xlink:href="#linearGradient5690"
       id="linearGradient5768"
       gradientUnits="userSpaceOnUse"
       x1="69.803185"
       y1="2.9203279"
       x2="69.803185"
       y2="6.2057195" />
    <linearGradient
       inkscape:collect="always"
       id="linearGradient5690">
      <stop
         style="stop-color:#ffffff;stop-opacity:1;"
         offset="0"
         id="stop5692" />
      <stop
         style="stop-color:#ffffff;stop-opacity:0;"
         offset="1"
         id="stop5694" />
    </linearGradient>
    <linearGradient
       inkscape:collect="always"
       xlink:href="#linearGradient5611-6"
       id="linearGradient8333-1-6"
       x1="-229.13565"
       y1="22.512939"
       x2="-229.13565"
       y2="25.091425"
       gradientUnits="userSpaceOnUse"
       gradientTransform="translate(25.854966,-0.78777466)" />
    <linearGradient
       id="linearGradient5611-6"
       inkscape:collect="always">
      <stop
         id="stop5613-9"
         offset="0"
         style="stop-color:#000000;stop-opacity:1" />
      <stop
         id="stop5615-6"
         offset="1"
         style="stop-color:#000000;stop-opacity:0" />
    </linearGradient>
    <linearGradient
       y2="25.091425"
       x2="-229.13565"
       y1="22.512939"
       x1="-229.13565"
       gradientTransform="translate(25.854966,-0.78777466)"
       gradientUnits="userSpaceOnUse"
       id="linearGradient6313"
       xlink:href="#linearGradient5611-6"
       inkscape:collect="always" />
    <linearGradient
       y2="25.091425"
       x2="-229.13565"
       y1="22.512939"
       x1="-229.13565"
       gradientTransform="translate(25.854966,-0.78777466)"
       gradientUnits="userSpaceOnUse"
       id="linearGradient6313-7"
       xlink:href="#linearGradient5611-6-6"
       inkscape:collect="always" />
    <linearGradient
       id="linearGradient5611-6-6"
       inkscape:collect="always">
      <stop
         id="stop5613-9-7"
         offset="0"
         style="stop-color:#000000;stop-opacity:1" />
      <stop
         id="stop5615-6-8"
         offset="1"
         style="stop-color:#000000;stop-opacity:0" />
    </linearGradient>
    <linearGradient
       y2="25.091425"
       x2="-229.13565"
       y1="22.512939"
       x1="-229.13565"
       gradientTransform="translate(25.854966,-0.78777466)"
       gradientUnits="userSpaceOnUse"
       id="linearGradient6391"
       xlink:href="#linearGradient5611-6-6"
       inkscape:collect="always" />
    <linearGradient
       inkscape:collect="always"
       xlink:href="#linearGradient5611-7"
       id="linearGradient8333-1-4"
       x1="-229.13565"
       y1="22.512939"
       x2="-229.13565"
       y2="25.091425"
       gradientUnits="userSpaceOnUse"
       gradientTransform="translate(25.854966,-0.78777466)" />
    <linearGradient
       id="linearGradient5611-7"
       inkscape:collect="always">
      <stop
         id="stop5613-75"
         offset="0"
         style="stop-color:#000000;stop-opacity:1" />
      <stop
         id="stop5615-4"
         offset="1"
         style="stop-color:#000000;stop-opacity:0" />
    </linearGradient>
    <linearGradient
       y2="25.091425"
       x2="-229.13565"
       y1="22.512939"
       x1="-229.13565"
       gradientTransform="translate(10.813187,-0.80533091)"
       gradientUnits="userSpaceOnUse"
       id="linearGradient3110-1"
       xlink:href="#linearGradient5611-7-9"
       inkscape:collect="always" />
    <linearGradient
       id="linearGradient5611-7-9"
       inkscape:collect="always">
      <stop
         id="stop5613-75-6"
         offset="0"
         style="stop-color:#000000;stop-opacity:1" />
      <stop
         id="stop5615-4-9"
         offset="1"
         style="stop-color:#000000;stop-opacity:0" />
    </linearGradient>
    <linearGradient
       inkscape:collect="always"
       xlink:href="#linearGradient5611-72"
       id="linearGradient3215-0"
       x1="26"
       y1="6"
       x2="26"
       y2="13"
       gradientUnits="userSpaceOnUse" />
    <linearGradient
       id="linearGradient5611-72"
       inkscape:collect="always">
      <stop
         id="stop5613-99"
         offset="0"
         style="stop-color:#000000;stop-opacity:1" />
      <stop
         id="stop5615-30"
         offset="1"
         style="stop-color:#000000;stop-opacity:0" />
    </linearGradient>
    <linearGradient
       inkscape:collect="always"
       id="linearGradient5690-9">
      <stop
         style="stop-color:#ffffff;stop-opacity:1;"
         offset="0"
         id="stop5692-1" />
      <stop
         style="stop-color:#ffffff;stop-opacity:0;"
         offset="1"
         id="stop5694-7" />
    </linearGradient>
    <linearGradient
       inkscape:collect="always"
       xlink:href="#linearGradient5690-9"
       id="linearGradient3277"
       gradientUnits="userSpaceOnUse"
       x1="69.803185"
       y1="2.9203279"
       x2="69.803185"
       y2="6.2057195" />
    <linearGradient
       inkscape:collect="always"
       xlink:href="#linearGradient5611"
       id="linearGradient7404"
       gradientUnits="userSpaceOnUse"
       gradientTransform="translate(25.854966,-0.78777466)"
       x1="-229.13565"
       y1="22.512939"
       x2="-229.13565"
       y2="25.091425" />
    <linearGradient
       inkscape:collect="always"
       xlink:href="#linearGradient5611"
       id="linearGradient7411"
       gradientUnits="userSpaceOnUse"
       gradientTransform="matrix(1.0013744,0,0,1,270.30203,-18.987883)"
       x1="-230.33217"
       y1="28.54418"
       x2="-230.33217"
       y2="32.20784" />
    <linearGradient
       inkscape:collect="always"
       xlink:href="#linearGradient5367"
       id="linearGradient7414"
       gradientUnits="userSpaceOnUse"
       gradientTransform="translate(306.9567,-18.987883)"
       x1="-296.9567"
       y1="19.987883"
       x2="-296.9567"
       y2="34.987885" />
    <linearGradient
       inkscape:collect="always"
       xlink:href="#linearGradient5367"
       id="linearGradient3909"
       gradientUnits="userSpaceOnUse"
       gradientTransform="matrix(1.0786517,0,0,1.0786517,-2.2696629,-0.35955056)"
       x1="39.1875"
       y1="2.1874995"
       x2="39.1875"
       y2="13.3125" />
    <linearGradient
       inkscape:collect="always"
       xlink:href="#linearGradient5611-3-4"
       id="linearGradient3924"
       gradientUnits="userSpaceOnUse"
       gradientTransform="matrix(1.3279448,0,0,-1.3279448,-5.027052,16.320766)"
       x1="69.803185"
       y1="2.9203279"
       x2="69.803185"
       y2="4.6444468" />
    <linearGradient
       inkscape:collect="always"
       xlink:href="#linearGradient5367-4"
       id="linearGradient3927"
       gradientUnits="userSpaceOnUse"
       x1="119.98322"
       y1="4.5249872"
       x2="119.98322"
       y2="16.346851"
       gradientTransform="translate(-31.921369,0.03175639)" />
    <linearGradient
       inkscape:collect="always"
       xlink:href="#linearGradient5611"
       id="linearGradient3940"
       gradientUnits="userSpaceOnUse"
       gradientTransform="translate(16.0039,0)"
       x1="56.999996"
       y1="-1"
       x2="56.999996"
       y2="8" />
    <linearGradient
       inkscape:collect="always"
       xlink:href="#linearGradient5367"
       id="linearGradient3943"
       gradientUnits="userSpaceOnUse"
       x1="72.003899"
       y1="1"
       x2="72.003899"
       y2="12" />
    <linearGradient
       inkscape:collect="always"
       xlink:href="#linearGradient5367"
       id="linearGradient3954"
       gradientUnits="userSpaceOnUse"
       x1="25.709396"
       y1="2.96875"
       x2="25.709396"
       y2="13.96875"
       gradientTransform="translate(32.4375,0.03125)" />
    <linearGradient
       inkscape:collect="always"
       xlink:href="#linearGradient7416"
       id="linearGradient3976"
       gradientUnits="userSpaceOnUse"
       x1="24"
       y1="1"
       x2="24"
       y2="14" />
    <linearGradient
       inkscape:collect="always"
       xlink:href="#linearGradient5611"
       id="linearGradient3978"
       gradientUnits="userSpaceOnUse"
       x1="26"
       y1="6"
       x2="26"
       y2="13" />
    <linearGradient
       inkscape:collect="always"
       xlink:href="#linearGradient5611"
       id="linearGradient3980"
       gradientUnits="userSpaceOnUse"
       x1="18.972891"
       y1="5"
       x2="18.972891"
       y2="11" />
    <linearGradient
       inkscape:collect="always"
       xlink:href="#linearGradient5611-5"
       id="linearGradient3978-7"
       gradientUnits="userSpaceOnUse"
       x1="26"
       y1="6"
       x2="26"
       y2="13" />
    <linearGradient
       id="linearGradient5611-5"
       inkscape:collect="always">
      <stop
         id="stop5613-4"
         offset="0"
         style="stop-color:#000000;stop-opacity:1" />
      <stop
         id="stop5615-46"
         offset="1"
         style="stop-color:#000000;stop-opacity:0" />
    </linearGradient>
    <linearGradient
       y2="13"
       x2="26"
       y1="6"
       x1="26"
       gradientUnits="userSpaceOnUse"
       id="linearGradient4013"
       xlink:href="#linearGradient5611-5"
       inkscape:collect="always"
       gradientTransform="matrix(-1,0,0,1,52.990512,0)" />
    <linearGradient
       inkscape:collect="always"
       xlink:href="#linearGradient7416"
       id="linearGradient4039"
       x1="27"
       y1="0.46255922"
       x2="27"
       y2="6"
       gradientUnits="userSpaceOnUse" />
    <linearGradient
       inkscape:collect="always"
       xlink:href="#linearGradient5437"
       id="linearGradient7204"
       gradientUnits="userSpaceOnUse"
       gradientTransform="translate(25.0039,-1.9978009)"
       x1="56.999996"
       y1="3.1245995"
       x2="56.999996"
       y2="8" />
    <linearGradient
       id="linearGradient5437"
       inkscape:collect="always">
      <stop
         id="stop5439"
         offset="0"
         style="stop-color:#000000;stop-opacity:1" />
      <stop
         id="stop5441"
         offset="1"
         style="stop-color:#000000;stop-opacity:0" />
    </linearGradient>
    <linearGradient
       inkscape:collect="always"
       xlink:href="#linearGradient5367-8"
       id="linearGradient7208"
       gradientUnits="userSpaceOnUse"
       gradientTransform="translate(315.06787,-0.99886237)"
       x1="72.003899"
       y1="1"
       x2="72.003899"
       y2="12" />
    <linearGradient
       inkscape:collect="always"
       id="linearGradient5367-8">
      <stop
         style="stop-color:#000000;stop-opacity:0.7"
         offset="0"
         id="stop5369-6" />
      <stop
         style="stop-color:#000000;stop-opacity:0.5"
         offset="1"
         id="stop5371-7" />
    </linearGradient>
    <linearGradient
       y2="12"
       x2="72.003899"
       y1="1"
       x1="72.003899"
       gradientTransform="translate(9,-1.9978009)"
       gradientUnits="userSpaceOnUse"
       id="linearGradient7266"
       xlink:href="#linearGradient5367-8"
       inkscape:collect="always" />
    <linearGradient
       inkscape:collect="always"
       xlink:href="#linearGradient5690-99"
       id="linearGradient5768-5"
       gradientUnits="userSpaceOnUse"
       x1="69.803185"
       y1="2.9203279"
       x2="69.803185"
       y2="6.2057195" />
    <linearGradient
       inkscape:collect="always"
       id="linearGradient5690-99">
      <stop
         style="stop-color:#ffffff;stop-opacity:1;"
         offset="0"
         id="stop5692-0" />
      <stop
         style="stop-color:#ffffff;stop-opacity:0;"
         offset="1"
         id="stop5694-76" />
    </linearGradient>
    <linearGradient
       y2="6.2057195"
       x2="69.803185"
       y1="2.9203279"
       x1="69.803185"
       gradientUnits="userSpaceOnUse"
       id="linearGradient4042-3"
       xlink:href="#linearGradient5611-3-7"
       inkscape:collect="always" />
    <linearGradient
       id="linearGradient5611-3-7"
       inkscape:collect="always">
      <stop
         id="stop5613-7-6"
         offset="0"
         style="stop-color:#000000;stop-opacity:1" />
      <stop
         id="stop5615-3-1"
         offset="1"
         style="stop-color:#000000;stop-opacity:0" />
    </linearGradient>
    <linearGradient
       inkscape:collect="always"
       xlink:href="#linearGradient5611-3-7"
       id="linearGradient7088"
       gradientUnits="userSpaceOnUse"
       gradientTransform="matrix(1.3279448,0,0,-1.3279448,5.849944,15.352016)"
       x1="69.803185"
       y1="2.9203279"
       x2="69.803185"
       y2="4.6444468" />
    <linearGradient
       inkscape:collect="always"
       xlink:href="#linearGradient5367-5"
       id="linearGradient7091"
       gradientUnits="userSpaceOnUse"
       x1="119.98322"
       y1="4.5249872"
       x2="119.98322"
       y2="16.346851"
       gradientTransform="translate(14.923845,-0.995039)" />
    <linearGradient
       inkscape:collect="always"
       id="linearGradient5367-5">
      <stop
         style="stop-color:#000000;stop-opacity:0.7"
         offset="0"
         id="stop5369-0" />
      <stop
         style="stop-color:#000000;stop-opacity:0.5"
         offset="1"
         id="stop5371-6" />
    </linearGradient>
    <linearGradient
       y2="16.346851"
       x2="119.98322"
       y1="4.5249872"
       x1="119.98322"
       gradientTransform="translate(-21.044372,-0.936994)"
       gradientUnits="userSpaceOnUse"
       id="linearGradient7302"
       xlink:href="#linearGradient5367-5"
       inkscape:collect="always" />
    <linearGradient
       inkscape:collect="always"
       xlink:href="#linearGradient5367-50"
       id="linearGradient7054"
       gradientUnits="userSpaceOnUse"
       x1="25.709396"
       y1="2.0155478"
       x2="25.709396"
       y2="15.803145"
       gradientTransform="translate(3.43947,-1.979414)" />
    <linearGradient
       inkscape:collect="always"
       id="linearGradient5367-50">
      <stop
         style="stop-color:#000000;stop-opacity:0.7"
         offset="0"
         id="stop5369-81" />
      <stop
         style="stop-color:#000000;stop-opacity:0.5"
         offset="1"
         id="stop5371-22" />
    </linearGradient>
    <linearGradient
       y2="15.803145"
       x2="25.709396"
       y1="2.0155478"
       x1="25.709396"
       gradientTransform="translate(38.702665,-1.9624684)"
       gradientUnits="userSpaceOnUse"
       id="linearGradient7322"
       xlink:href="#linearGradient5367-50"
       inkscape:collect="always" />
    <linearGradient
       inkscape:collect="always"
       xlink:href="#linearGradient5367"
       id="linearGradient4063"
       gradientUnits="userSpaceOnUse"
       gradientTransform="matrix(1.0786517,0,0,1.0786517,2.7303374,-1.35955)"
       x1="39.1875"
       y1="2.1874995"
       x2="39.1875"
       y2="13.3125" />
    <linearGradient
       inkscape:collect="always"
       xlink:href="#linearGradient5611"
       id="linearGradient4579"
       gradientUnits="userSpaceOnUse"
       gradientTransform="matrix(1.0013744,0,0,1,270.30203,-20.987883)"
       x1="-230.33217"
       y1="28.54418"
       x2="-230.33217"
       y2="32.20784" />
    <linearGradient
       inkscape:collect="always"
       xlink:href="#linearGradient5367"
       id="linearGradient4582"
       gradientUnits="userSpaceOnUse"
       gradientTransform="translate(306.9567,-20.987883)"
       x1="-296.9567"
       y1="19.987883"
       x2="-296.9567"
       y2="34.987885" />
    <linearGradient
       inkscape:collect="always"
       xlink:href="#linearGradient5611-5"
       id="linearGradient4588"
       gradientUnits="userSpaceOnUse"
       gradientTransform="matrix(-1,0,0,1,55.990512,-1)"
       x1="26"
       y1="6"
       x2="26"
       y2="13" />
    <linearGradient
       inkscape:collect="always"
       xlink:href="#linearGradient7416"
       id="linearGradient4591"
       gradientUnits="userSpaceOnUse"
       x1="27"
       y1="0.46255922"
       x2="27"
       y2="6"
       gradientTransform="translate(3,-1)" />
    <linearGradient
       inkscape:collect="always"
       xlink:href="#linearGradient5611"
       id="linearGradient4594"
       gradientUnits="userSpaceOnUse"
       x1="18.972891"
       y1="5"
       x2="18.972891"
       y2="11"
       gradientTransform="translate(3,-1)" />
    <linearGradient
       inkscape:collect="always"
       xlink:href="#linearGradient5611"
       id="linearGradient4597"
       gradientUnits="userSpaceOnUse"
       x1="26"
       y1="6"
       x2="26"
       y2="13"
       gradientTransform="translate(3,-1)" />
    <linearGradient
       inkscape:collect="always"
       xlink:href="#linearGradient7416"
       id="linearGradient4600"
       gradientUnits="userSpaceOnUse"
       x1="24"
       y1="1"
       x2="24"
       y2="14"
       gradientTransform="translate(3,-1)" />
    <linearGradient
       inkscape:collect="always"
       xlink:href="#linearGradient5690-99-2"
       id="linearGradient5768-5-9"
       gradientUnits="userSpaceOnUse"
       x1="69.803185"
       y1="2.9203279"
       x2="69.803185"
       y2="6.2057195" />
    <linearGradient
       inkscape:collect="always"
       id="linearGradient5690-99-2">
      <stop
         style="stop-color:#ffffff;stop-opacity:1;"
         offset="0"
         id="stop5692-0-2" />
      <stop
         style="stop-color:#ffffff;stop-opacity:0;"
         offset="1"
         id="stop5694-76-4" />
    </linearGradient>
    <linearGradient
       y2="6.2057195"
       x2="69.803185"
       y1="2.9203279"
       x1="69.803185"
       gradientUnits="userSpaceOnUse"
       id="linearGradient4042-3-7"
       xlink:href="#linearGradient5611-3-7-7"
       inkscape:collect="always" />
    <linearGradient
       id="linearGradient5611-3-7-7"
       inkscape:collect="always">
      <stop
         id="stop5613-7-6-5"
         offset="0"
         style="stop-color:#000000;stop-opacity:1" />
      <stop
         id="stop5615-3-1-4"
         offset="1"
         style="stop-color:#000000;stop-opacity:0" />
    </linearGradient>
    <linearGradient
       inkscape:collect="always"
       xlink:href="#linearGradient5611-3-7-7"
       id="linearGradient7088-8"
       gradientUnits="userSpaceOnUse"
       gradientTransform="matrix(1.3279448,0,0,-1.3279448,5.849944,-2.6479846)"
       x1="69.803185"
       y1="2.9203279"
       x2="69.803185"
       y2="4.6444468" />
    <linearGradient
       inkscape:collect="always"
       xlink:href="#linearGradient5437-6"
       id="linearGradient7204-3"
       gradientUnits="userSpaceOnUse"
       gradientTransform="translate(25.0039,-19.997802)"
       x1="56.999996"
       y1="3.1245995"
       x2="56.999996"
       y2="8" />
    <linearGradient
       id="linearGradient5437-6"
       inkscape:collect="always">
      <stop
         id="stop5439-8"
         offset="0"
         style="stop-color:#000000;stop-opacity:1" />
      <stop
         id="stop5441-0"
         offset="1"
         style="stop-color:#000000;stop-opacity:0" />
    </linearGradient>
    <linearGradient
       inkscape:collect="always"
       xlink:href="#linearGradient5611-5-1"
       id="linearGradient4588-1"
       gradientUnits="userSpaceOnUse"
       gradientTransform="matrix(-1,0,0,1,55.990512,-19.000001)"
       x1="26"
       y1="6"
       x2="26"
       y2="13" />
    <linearGradient
       id="linearGradient5611-5-1"
       inkscape:collect="always">
      <stop
         id="stop5613-4-0"
         offset="0"
         style="stop-color:#000000;stop-opacity:1" />
      <stop
         id="stop5615-46-8"
         offset="1"
         style="stop-color:#000000;stop-opacity:0" />
    </linearGradient>
    <linearGradient
       inkscape:collect="always"
       xlink:href="#linearGradient7416-0"
       id="linearGradient4591-5"
       gradientUnits="userSpaceOnUse"
       x1="27"
       y1="0.46255922"
       x2="27"
       y2="6"
       gradientTransform="translate(3,-19.000001)" />
    <linearGradient
       id="linearGradient7416-0"
       inkscape:collect="always">
      <stop
         id="stop7418-6"
         offset="0"
         style="stop-color:#000000;stop-opacity:0.749" />
      <stop
         id="stop7420-4"
         offset="1"
         style="stop-color:#000000;stop-opacity:0.5" />
    </linearGradient>
    <linearGradient
       inkscape:collect="always"
       xlink:href="#linearGradient5611-2"
       id="linearGradient4594-6"
       gradientUnits="userSpaceOnUse"
       x1="18.972891"
       y1="5"
       x2="18.972891"
       y2="11"
       gradientTransform="translate(3,-19.000001)" />
    <linearGradient
       id="linearGradient5611-2"
       inkscape:collect="always">
      <stop
         id="stop5613-5"
         offset="0"
         style="stop-color:#000000;stop-opacity:1" />
      <stop
         id="stop5615-8"
         offset="1"
         style="stop-color:#000000;stop-opacity:0" />
    </linearGradient>
    <linearGradient
       inkscape:collect="always"
       xlink:href="#linearGradient5611-2"
       id="linearGradient4597-6"
       gradientUnits="userSpaceOnUse"
       x1="26"
       y1="6"
       x2="26"
       y2="13"
       gradientTransform="translate(3,-19.000001)" />
    <linearGradient
       inkscape:collect="always"
       xlink:href="#linearGradient7416-0"
       id="linearGradient4600-2"
       gradientUnits="userSpaceOnUse"
       x1="24"
       y1="1"
       x2="24"
       y2="14"
       gradientTransform="translate(3,-19.000001)" />
    <linearGradient
       inkscape:collect="always"
       xlink:href="#linearGradient5611-2"
       id="linearGradient7404-8"
       gradientUnits="userSpaceOnUse"
       gradientTransform="translate(25.854966,-0.78777466)"
       x1="-229.13565"
       y1="22.512939"
       x2="-229.13565"
       y2="25.091425" />
    <linearGradient
       inkscape:collect="always"
       xlink:href="#linearGradient5611-2"
       id="linearGradient4579-4"
       gradientUnits="userSpaceOnUse"
       gradientTransform="matrix(1.0013744,0,0,1,270.30203,-38.987884)"
       x1="-230.33217"
       y1="28.54418"
       x2="-230.33217"
       y2="32.20784" />
    <linearGradient
       inkscape:collect="always"
       xlink:href="#linearGradient5690-9-2"
       id="linearGradient3277-6"
       gradientUnits="userSpaceOnUse"
       x1="69.803185"
       y1="2.9203279"
       x2="69.803185"
       y2="6.2057195" />
    <linearGradient
       inkscape:collect="always"
       id="linearGradient5690-9-2">
      <stop
         style="stop-color:#ffffff;stop-opacity:1;"
         offset="0"
         id="stop5692-1-9" />
      <stop
         style="stop-color:#ffffff;stop-opacity:0;"
         offset="1"
         id="stop5694-7-9" />
    </linearGradient>
    <linearGradient
       y2="25.091425"
       x2="-229.13565"
       y1="22.512939"
       x1="-229.13565"
       gradientTransform="translate(25.854966,-0.78777466)"
       gradientUnits="userSpaceOnUse"
       id="linearGradient4494-8"
       xlink:href="#linearGradient5611-3-1"
       inkscape:collect="always" />
    <linearGradient
       id="linearGradient5611-3-1"
       inkscape:collect="always">
      <stop
         id="stop5613-8-3"
         offset="0"
         style="stop-color:#000000;stop-opacity:1" />
      <stop
         id="stop5615-7-1"
         offset="1"
         style="stop-color:#000000;stop-opacity:0" />
    </linearGradient>
    <linearGradient
       inkscape:collect="always"
       xlink:href="#linearGradient5611-5-1"
       id="linearGradient4005"
       gradientUnits="userSpaceOnUse"
       gradientTransform="matrix(-1,0,0,1,55.990512,0.999999)"
       x1="26"
       y1="6"
       x2="26"
       y2="13" />
    <linearGradient
       inkscape:collect="always"
       xlink:href="#linearGradient5611-5-1"
       id="linearGradient4010"
       gradientUnits="userSpaceOnUse"
       gradientTransform="matrix(-1,0,0,1,55.990512,0.999999)"
       x1="26"
       y1="6"
       x2="26"
       y2="13" />
    <linearGradient
       inkscape:collect="always"
       xlink:href="#linearGradient7416-0"
       id="linearGradient3211"
       gradientUnits="userSpaceOnUse"
       gradientTransform="translate(3,0.999999)"
       x1="24"
       y1="1"
       x2="24"
       y2="14" />
  </defs>
  <sodipodi:namedview
     id="base"
     pagecolor="#ffffff"
     bordercolor="#666666"
     borderopacity="1.0"
     inkscape:pageopacity="0.0"
     inkscape:pageshadow="2"
     inkscape:zoom="5.6568542"
     inkscape:cx="38.603734"
     inkscape:cy="0.26288794"
     inkscape:current-layer="layer1"
     showgrid="true"
     inkscape:grid-bbox="true"
     inkscape:document-units="px"
     inkscape:snap-nodes="false"
     inkscape:snap-bbox="true"
     showguides="true"
     inkscape:guide-bbox="true"
     inkscape:window-width="1920"
     inkscape:window-height="1011"
     inkscape:window-x="0"
     inkscape:window-y="34"
     inkscape:window-maximized="1">
    <inkscape:grid
       type="xygrid"
       id="grid3258"
       empspacing="5"
       visible="true"
       enabled="true"
       snapvisiblegridlinesonly="true" />
    <sodipodi:guide
       orientation="0,1"
       position="50,0"
       id="guide3127" />
    <sodipodi:guide
       orientation="0,1"
       position="41,18"
       id="guide3129" />
  </sodipodi:namedview>
  <metadata
     id="metadata3255">
    <rdf:RDF>
      <cc:Work
         rdf:about="">
        <dc:format>image/svg+xml</dc:format>
        <dc:type
           rdf:resource="http://purl.org/dc/dcmitype/StillImage" />
        <dc:title></dc:title>
      </cc:Work>
    </rdf:RDF>
  </metadata>
  <g
     id="layer1"
     inkscape:label="Layer 1"
     inkscape:groupmode="layer"
     transform="translate(0,20)">
    <path
       inkscape:connector-curvature="0"
       style="opacity:0.75000000000000000;fill:#ffffff;fill-opacity:1;stroke:none"
       d="m 45,-17.000001 c -3.313709,0 -6,2.686292 -6,6 0,3.3137094 2.686291,6.0000004 6,6.0000004 3.313709,0 6,-2.686291 6,-6.0000004 0,-3.313708 -2.686291,-6 -6,-6 z m -1,2 2,0 0,2 -2,0 0,-2 z m 0,3 2,0 0,4.0000004 -2,0 0,-4.0000004 z"
       id="path3637-3" />
    <path
       inkscape:connector-curvature="0"
       style="opacity:0.75000000000000000;fill:#ffffff;fill-opacity:1"
       d="m 8.5625001,-19.031251 c -2.48528,0 -4.5,2.01471 -4.5,4.5 0,1.56805 0.7212899,2.94442 1.9375,3.75 l 0,0.75 -2.03125,0 c -1.09801,0 -1.96875,0.8919914 -1.96875,2.0000004 l 0,3.03125 12.9999999,0 0,-3.03125 c 0,-1.108009 -0.87075,-2.0000004 -1.96875,-2.0000004 l -1.96875,0 0,-0.75 c 1.21621,-0.80558 2,-2.18195 2,-3.75 0,-2.48529 -2.014719,-4.5 -4.4999999,-4.5 z m -0.5625,2.03125 1,0 0,2 1.9999999,0 0,1 -1.9999999,0 0,2 -1,0 0,-2 -2,0 0,-1 2,0 0,-2 z"
       id="path4680-6-9" />
    <path
       style="opacity:0.75000000000000000;fill:#ffffff;fill-opacity:1;stroke:none"
       d="M 29.5 2 C 28.39148 2 27.379304 2.4001101 26.59375 3.0625 C 26.472397 3.1657388 26.359944 3.2907583 26.25 3.40625 C 25.48039 4.214692 25 5.2951863 25 6.5 C 25.010679 7.309398 25.298793 8.458233 25.96875 9.25 C 26.148579 9.498615 26.23202 9.670196 26.46875 10 L 25.96875 10.125 C 25.889588 10.148645 25.826028 10.188617 25.75 10.21875 L 25.5625 10.28125 C 24.625065 10.733283 23.96875 11.689885 23.96875 12.8125 L 23.96875 14 L 24 14 L 24 15 L 35 15 L 35 12.8125 C 35 11.28644 33.794671 10.050171 32.28125 10 C 33.322581 9.175794 34 7.931165 34 6.5 C 34 4.014719 31.985281 2 29.5 2 z M 24.5 3 C 22.567003 3 21 4.567003 21 6.5 C 21 7.482535 21.410506 8.364309 22.0625 9 L 22 9 C 20.898239 9 20 9.8982386 20 11 L 20 14 L 22.96875 14 L 22.96875 12.8125 C 22.96875 11.383926 23.770832 10.15337 24.9375 9.5 C 24.325451 8.5740209 24.012641 7.4581042 24 6.5 C 24 5.2112357 24.44277 4.0319006 25.1875 3.09375 C 24.959862 3.0461958 24.739903 3 24.5 3 z M 29 4 L 30 4 L 30 6 L 32 6 L 32 7 L 30 7 L 30 9 L 29 9 L 29 7 L 27 7 L 27 6 L 29 6 L 29 4 z "
       transform="translate(0,-20)"
       id="path3225-3" />
    <path
       inkscape:connector-curvature="0"
       style="opacity:0.75000000000000000;fill:#ffffff;fill-opacity:1;stroke:none"
       d="m 76.125,-17.997802 c -0.62325,0 -1.125,0.5575 -1.125,1.25 l 0,7.5000004 c 0,0.692501 0.50175,1.250001 1.125,1.250001 l 5.875,0 3,3 0,-3 0.875,0 c 0.62325,0 1.125,-0.5575 1.125,-1.250001 l 0,-7.5000004 c 0,-0.6925 -0.50175,-1.25 -1.125,-1.25 l -9.75,0 z"
       id="rect4585-38-4" />
    <path
       style="font-size:medium;font-style:normal;font-variant:normal;font-weight:normal;font-stretch:normal;text-indent:0;text-align:start;text-decoration:none;line-height:normal;letter-spacing:normal;word-spacing:normal;text-transform:none;direction:ltr;block-progression:tb;writing-mode:lr-tb;text-anchor:start;baseline-shift:baseline;opacity:0.75000000000000000;color:#000000;fill:#ffffff;fill-opacity:1;stroke:none;stroke-width:3.27565789000000018;marker:none;visibility:visible;display:inline;overflow:visible;enable-background:accumulate;font-family:Sans;-inkscape-font-specification:Sans"
       d="m 98.98247,-16.920301 c -3.31231,0 -6,2.687692 -6,6 0,3.3123094 2.68769,6.0312514 6,6.0312514 3.31231,0 6.03125,-2.718942 6.03125,-6.0312514 0,-3.312308 -2.71894,-6 -6.03125,-6 z m 0,1.96875 c 2.23143,0 4.03125,1.799822 4.03125,4.03125 0,0.762167 -0.22914,1.4563794 -0.59375,2.0625014 l -5.5,-5.5000014 c 0.60612,-0.364607 1.30033,-0.59375 2.0625,-0.59375 z m -3.53125,2.125 5.4375,5.4375014 c -0.56765,0.304927 -1.21393,0.5 -1.90625,0.5 -2.23143,0 -4.03125,-1.799823 -4.03125,-4.0312514 0,-0.694785 0.19304,-1.337165 0.5,-1.90625 z"
       id="path4086-6"
       inkscape:connector-curvature="0" />
    <path
       style="opacity:0.75;color:#000000;fill:none;stroke:#ffffff;stroke-width:1;stroke-linecap:round;stroke-linejoin:round;stroke-miterlimit:4;stroke-opacity:0;stroke-dashoffset:0;marker:none;visibility:visible;display:inline;overflow:visible;enable-background:accumulate"
       d="m 102.97666,-8.6927236 c 0.65434,-2.4420044 -0.79486,-4.9520824 -3.23687,-5.6064164 -0.67388,-0.180567 -1.35296,-0.200948 -1.99678,-0.08448"
       id="path4017-5-9"
       inkscape:connector-curvature="0"
       sodipodi:nodetypes="csc" />
    <path
       id="path8407-8"
       d="m 66.577665,-17.993719 c -0.25162,10e-7 -0.49469,0.119692 -0.6875,0.3125 l -7.09375,7.09375 2.8125,2.8124994 7.09375,-7.0937494 c 0.38561,-0.385616 0.38561,-1.020636 0,-1.40625 l -1.4375,-1.40625 c -0.1928,-0.192807 -0.43587,-0.3125 -0.6875,-0.3125 z m -8.5,8.0937504 -1.34375,4.218749 4.1875,-1.375 -2.84375,-2.843749 z"
       inkscape:connector-curvature="0"
       style="opacity:0.75000000000000000;fill:#ffffff;fill-opacity:1" />
    <path
       inkscape:connector-curvature="0"
       style="opacity:1;fill:#ffffff;fill-opacity:1;stroke:none"
       d="m 45,1.03125 c -3.313709,0 -6,2.686292 -6,6 0,3.313709 2.686291,6 6,6 3.313709,0 6,-2.686291 6,-6 0,-3.313708 -2.686291,-6 -6,-6 z m -1,2 2,0 0,2 -2,0 0,-2 z m 0,3 2,0 0,4 -2,0 0,-4 z"
       id="path3637-3-3" />
    <path
       inkscape:connector-curvature="0"
       style="opacity:1;fill:#ffffff;fill-opacity:1"
       d="m 8.5625001,-1 c -2.48528,0 -4.5,2.01471 -4.5,4.5 0,1.56805 0.7212899,2.94442 1.9375,3.75 l 0,0.75 -2.03125,0 c -1.09801,0 -1.96875,0.891991 -1.96875,2 l 0,3.03125 L 15,13.03125 15,10 C 15,8.891991 14.12925,8 13.03125,8 l -1.96875,0 0,-0.75 c 1.21621,-0.80558 2,-2.18195 2,-3.75 0,-2.48529 -2.014719,-4.5 -4.4999999,-4.5 z m -0.5625,2.03125 1,0 0,2 1.9999999,0 0,1 -1.9999999,0 0,2 -1,0 0,-2 -2,0 0,-1 2,0 0,-2 z"
       id="path4680-6-9-0" />
    <path
       inkscape:connector-curvature="0"
       style="opacity:1;fill:#ffffff;fill-opacity:1;stroke:none"
       d="m 29.5,0.031251 c -1.10852,0 -2.120696,0.40011 -2.90625,1.0625 C 26.472397,1.19699 26.359944,1.322009 26.25,1.437501 25.48039,2.245943 25,3.326437 25,4.531251 c 0.01068,0.809398 0.298793,1.958233 0.96875,2.75 0.179829,0.248615 0.26327,0.420196 0.5,0.75 l -0.5,0.125 c -0.07916,0.02365 -0.142722,0.06362 -0.21875,0.09375 l -0.1875,0.0625 c -0.937435,0.452033 -1.59375,1.408635 -1.59375,2.53125 l 0,1.1875 0.03125,0 0,1 11,0 0,-2.1875 C 35,9.317691 33.794671,8.081422 32.28125,8.031251 33.322581,7.207045 34,5.962416 34,4.531251 c 0,-2.485281 -2.014719,-4.5 -4.5,-4.5 z m -5,1 c -1.932997,0 -3.5,1.567003 -3.5,3.5 0,0.982535 0.410506,1.864309 1.0625,2.5 l -0.0625,0 c -1.101761,0 -2,0.898239 -2,2 l 0,3 2.96875,0 0,-1.1875 c 0,-1.428574 0.802082,-2.65913 1.96875,-3.3125 C 24.325451,6.605272 24.012641,5.489355 24,4.531251 24,3.242487 24.44277,2.063152 25.1875,1.125001 24.959862,1.077451 24.739903,1.031251 24.5,1.031251 z m 4.5,1 1,0 0,2 2,0 0,1 -2,0 0,2 -1,0 0,-2 -2,0 0,-1 2,0 0,-2 z"
       id="path3225-3-3" />
    <path
       inkscape:connector-curvature="0"
       style="opacity:1;fill:#ffffff;fill-opacity:1;stroke:none"
       d="m 76.125,0.033449 c -0.62325,0 -1.125,0.5575 -1.125,1.25 l 0,7.5 c 0,0.692501 0.50175,1.250001 1.125,1.250001 l 5.875,0 3,3 0,-3 0.875,0 c 0.62325,0 1.125,-0.5575 1.125,-1.250001 l 0,-7.5 c 0,-0.6925 -0.50175,-1.25 -1.125,-1.25 l -9.75,0 z"
       id="rect4585-38-4-8" />
    <path
       style="font-size:medium;font-style:normal;font-variant:normal;font-weight:normal;font-stretch:normal;text-indent:0;text-align:start;text-decoration:none;line-height:normal;letter-spacing:normal;word-spacing:normal;text-transform:none;direction:ltr;block-progression:tb;writing-mode:lr-tb;text-anchor:start;baseline-shift:baseline;opacity:1;color:#000000;fill:#ffffff;fill-opacity:1;stroke:none;stroke-width:3.27565789000000018;marker:none;visibility:visible;display:inline;overflow:visible;enable-background:accumulate;font-family:Sans;-inkscape-font-specification:Sans"
       d="m 98.98247,1.11095 c -3.31231,0 -6,2.687692 -6,6 0,3.312309 2.68769,6.031251 6,6.031251 3.31231,0 6.03125,-2.718942 6.03125,-6.031251 0,-3.312308 -2.71894,-6 -6.03125,-6 z m 0,1.96875 c 2.23143,0 4.03125,1.799822 4.03125,4.03125 0,0.762167 -0.22914,1.456379 -0.59375,2.062501 l -5.5,-5.500001 C 97.52609,3.308843 98.2203,3.0797 98.98247,3.0797 z m -3.53125,2.125 5.4375,5.437501 c -0.56765,0.304927 -1.21393,0.5 -1.90625,0.5 -2.23143,0 -4.03125,-1.799823 -4.03125,-4.031251 0,-0.694785 0.19304,-1.337165 0.5,-1.90625 z"
       id="path4086-6-0"
       inkscape:connector-curvature="0" />
    <path
       style="opacity:1;color:#000000;fill:none;stroke:#ffffff;stroke-width:1;stroke-linecap:round;stroke-linejoin:round;stroke-miterlimit:4;stroke-opacity:0;stroke-dashoffset:0;marker:none;visibility:visible;display:inline;overflow:visible;enable-background:accumulate"
       d="M 102.97666,9.338527 C 103.631,6.896523 102.1818,4.386445 99.73979,3.732111 99.06591,3.551544 98.38683,3.531163 97.74301,3.647631"
       id="path4017-5-9-7"
       inkscape:connector-curvature="0"
       sodipodi:nodetypes="csc" />
    <path
       id="path8407-8-9"
       d="m 66.577665,0.037532 c -0.25162,10e-7 -0.49469,0.119692 -0.6875,0.3125 l -7.09375,7.09375 2.8125,2.812499 7.09375,-7.093749 c 0.38561,-0.385616 0.38561,-1.020636 0,-1.40625 l -1.4375,-1.40625 c -0.1928,-0.192807 -0.43587,-0.3125 -0.6875,-0.3125 z m -8.5,8.09375 -1.34375,4.218749 4.1875,-1.375 -2.84375,-2.843749 z"
       inkscape:connector-curvature="0"
       style="opacity:1;fill:#ffffff;fill-opacity:1" />
  </g>
</svg>
