<?xml version="1.0" encoding="UTF-8" standalone="no"?>
<!-- Created with Inkscape (http://www.inkscape.org/) -->

<svg
   xmlns:dc="http://purl.org/dc/elements/1.1/"
   xmlns:cc="http://creativecommons.org/ns#"
   xmlns:rdf="http://www.w3.org/1999/02/22-rdf-syntax-ns#"
   xmlns:svg="http://www.w3.org/2000/svg"
   xmlns="http://www.w3.org/2000/svg"
   xmlns:xlink="http://www.w3.org/1999/xlink"
   xmlns:sodipodi="http://sodipodi.sourceforge.net/DTD/sodipodi-0.dtd"
   xmlns:inkscape="http://www.inkscape.org/namespaces/inkscape"
   width="300"
   height="300"
   id="svg2"
   version="1.1"
   inkscape:version="0.48.2 r9819"
   sodipodi:docname="contact-generic@2x.svg"
   inkscape:export-filename="/home/andreasn/SparkleShare/thunderbird-icons/pinstripe/contact-generic@2x.png"
   inkscape:export-xdpi="90"
   inkscape:export-ydpi="90">
  <defs
     id="defs4">
    <radialGradient
       inkscape:collect="always"
       xlink:href="#linearGradient10115"
       id="radialGradient9939"
       cx="37.169788"
       cy="27.270292"
       fx="37.169788"
       fy="27.270292"
       r="65"
       gradientUnits="userSpaceOnUse"
       gradientTransform="matrix(2.3673077,0,0,2.6916358,841.60078,-614.9231)" />
    <linearGradient
       id="linearGradient10115"
       inkscape:collect="always">
      <stop
         id="stop10117"
         offset="0"
         style="stop-color:#dfe1de;stop-opacity:1" />
      <stop
         id="stop10119"
         offset="1"
         style="stop-color:#c1c4bd;stop-opacity:1" />
    </linearGradient>
    <filter
       color-interpolation-filters="sRGB"
       inkscape:collect="always"
       id="filter9991">
      <feGaussianBlur
         inkscape:collect="always"
         stdDeviation="1.46"
         id="feGaussianBlur9993" />
    </filter>
  </defs>
  <sodipodi:namedview
     id="base"
     pagecolor="#ffffff"
     bordercolor="#666666"
     borderopacity="1.0"
     inkscape:pageopacity="0.0"
     inkscape:pageshadow="2"
     inkscape:zoom="2.0819801"
     inkscape:cx="110.61508"
     inkscape:cy="192.43731"
     inkscape:document-units="px"
     inkscape:current-layer="layer1"
     showgrid="false"
     fit-margin-top="0"
     fit-margin-left="0"
     fit-margin-right="0"
     fit-margin-bottom="0"
     inkscape:window-width="1920"
     inkscape:window-height="1011"
     inkscape:window-x="0"
     inkscape:window-y="34"
     inkscape:window-maximized="1" />
  <metadata
     id="metadata7">
    <rdf:RDF>
      <cc:Work
         rdf:about="">
        <dc:format>image/svg+xml</dc:format>
        <dc:type
           rdf:resource="http://purl.org/dc/dcmitype/StillImage" />
        <dc:title></dc:title>
      </cc:Work>
    </rdf:RDF>
  </metadata>
  <g
     inkscape:label="Layer 1"
     inkscape:groupmode="layer"
     id="layer1"
     transform="translate(-851.51575,601.80869)">
    <rect
       transform="matrix(1.8991473,0,0,1.8991473,1185.8306,-635.64316)"
       style="opacity:0.4;fill:none;stroke:#2e3436;stroke-width:1.57965636;stroke-linecap:butt;stroke-linejoin:miter;stroke-miterlimit:4;stroke-opacity:1;stroke-dasharray:none;stroke-dashoffset:0;marker:none;visibility:visible;display:inline;overflow:visible;filter:url(#filter9991);enable-background:accumulate"
       id="rect9989"
       width="143"
       height="143"
       x="-168.5"
       y="25.5" />
    <rect
       style="fill:#ffffff;fill-opacity:1;fill-rule:evenodd;stroke:none;stroke-width:0.99999994;marker:none;visibility:visible;display:inline;overflow:visible;enable-background:accumulate"
       id="rect10003"
       width="271.57806"
       height="271.57806"
       x="864.86798"
       y="-588.1712" />
    <rect
       style="fill:url(#radialGradient9939);fill-opacity:1;fill-rule:evenodd;stroke:none;stroke-width:0.99999994;marker:none;visibility:visible;display:inline;overflow:visible;enable-background:accumulate"
       id="rect9841"
       width="239.06519"
       height="240.9184"
       x="880.16815"
       y="-572.84131" />
    <path
       inkscape:connector-curvature="0"
       style="fill:#646661;fill-opacity:1;fill-rule:evenodd;stroke:none;stroke-width:0.99999994;marker:none;visibility:visible;display:inline;overflow:visible;enable-background:accumulate"
       d="m 977.46758,-557.98919 -25.4604,30.83941 -4.4824,-1.37462 c -2.5733,9.79006 -5.412,21.37664 -4.0044,32.8117 l 0.4781,0 1.0161,13.0853 c -1.7285,-3.2646 -0.6424,-6.76884 -4.363,-5.08014 -5.0966,2.31327 -3.3961,9.15134 -3.1675,13.08882 0.8801,16.0665 4.337,17.74099 7.5305,27.49602 l 3.7055,3.34691 0.6574,7.59032 4.9962,11.81399 6.3594,8.62609 c 0,0 3.2063,11.88366 3.1078,16.43573 -0.097,4.55207 -3.1078,13.26812 -3.1078,13.26812 l -0.7172,-0.0597 -75.6641,33.1703 c -1.558,0.9008 -2.9539,1.87823 -4.1836,2.98832 l 0,18.03947 239.06512,0 0,-15.76836 c -1.6934,-2.02821 -3.8312,-3.77713 -6.3949,-5.25943 l -75.6641,-33.1703 -0.7172,0.0597 c 0,0 -2.3492,-9.47238 -2.3907,-13.98532 -0.042,-4.51292 2.3907,-15.71853 2.3907,-15.71853 l 7.1945,-8.40789 4.1611,-12.03219 0.5976,-6.75359 2.6297,-2.39065 c 3.1936,-9.75503 7.6666,-11.42952 8.5465,-27.49602 0.2286,-3.93746 1.8693,-10.83531 -3.2274,-13.14858 -2.9108,-1.32125 -2.7601,0.564 -4.1237,2.98831 l 1.0159,-13.14497 c 0,0 -0.2442,-3.64368 -1.6136,-8.84541 l 8.4868,-0.77696 -10.7579,-16.4955 15.1806,-4.90084 -33.4691,-12.96929 6.2157,-4.0641 -29.4649,-8.48682 -31.73582,7.65009 1.3745,-12.96929 z"
       id="rect10075"
       sodipodi:nodetypes="ccccccscccccczcccccccccczccccccsccccccccccc" />
  </g>
</svg>
