<?xml version="1.0" encoding="UTF-8" standalone="no"?>
<!-- Created with Inkscape (http://www.inkscape.org/) -->

<svg
   xmlns:dc="http://purl.org/dc/elements/1.1/"
   xmlns:cc="http://creativecommons.org/ns#"
   xmlns:rdf="http://www.w3.org/1999/02/22-rdf-syntax-ns#"
   xmlns:svg="http://www.w3.org/2000/svg"
   xmlns="http://www.w3.org/2000/svg"
   xmlns:xlink="http://www.w3.org/1999/xlink"
   xmlns:sodipodi="http://sodipodi.sourceforge.net/DTD/sodipodi-0.dtd"
   xmlns:inkscape="http://www.inkscape.org/namespaces/inkscape"
   width="48"
   height="16"
   id="svg3267"
   version="1.1"
   inkscape:version="0.48.2 r9819"
   sodipodi:docname="New document 1">
  <defs
     id="defs3269">
    <linearGradient
       gradientTransform="translate(-111.96279,16.97003)"
       y2="-24"
       x2="459.59375"
       y1="-25.65625"
       x1="459.59375"
       gradientUnits="userSpaceOnUse"
       id="linearGradient4266-4-4"
       xlink:href="#linearGradient4243-7-1-3"
       inkscape:collect="always" />
    <linearGradient
       inkscape:collect="always"
       id="linearGradient4243-7-1-3">
      <stop
         style="stop-color:#141514;stop-opacity:1;"
         offset="0"
         id="stop4245-2-8-0" />
      <stop
         style="stop-color:#141514;stop-opacity:0;"
         offset="1"
         id="stop4247-1-6-3" />
    </linearGradient>
    <linearGradient
       inkscape:collect="always"
       id="linearGradient5367-6">
      <stop
         style="stop-color:#000000;stop-opacity:0.7"
         offset="0"
         id="stop5369-0" />
      <stop
         style="stop-color:#000000;stop-opacity:0.5"
         offset="1"
         id="stop5371-4" />
    </linearGradient>
    <linearGradient
       inkscape:collect="always"
       xlink:href="#linearGradient5367-6"
       id="linearGradient4176-0"
       x1="155.39044"
       y1="2.7413728"
       x2="155.39044"
       y2="8.6250916"
       gradientUnits="userSpaceOnUse"
       gradientTransform="translate(0,-36.015625)" />
  </defs>
  <sodipodi:namedview
     id="base"
     pagecolor="#ffffff"
     bordercolor="#666666"
     borderopacity="1.0"
     inkscape:pageopacity="0.0"
     inkscape:pageshadow="2"
     inkscape:zoom="16"
     inkscape:cx="23.986563"
     inkscape:cy="0.96383701"
     inkscape:current-layer="layer1"
     showgrid="false"
     inkscape:grid-bbox="true"
     inkscape:document-units="px"
     inkscape:snap-nodes="false"
     inkscape:snap-bbox="true"
     inkscape:window-width="1920"
     inkscape:window-height="1011"
     inkscape:window-x="0"
     inkscape:window-y="34"
     inkscape:window-maximized="1">
    <inkscape:grid
       type="xygrid"
       id="grid3275"
       empspacing="5"
       visible="true"
       enabled="true"
       snapvisiblegridlinesonly="true" />
  </sodipodi:namedview>
  <metadata
     id="metadata3272">
    <rdf:RDF>
      <cc:Work
         rdf:about="">
        <dc:format>image/svg+xml</dc:format>
        <dc:type
           rdf:resource="http://purl.org/dc/dcmitype/StillImage" />
        <dc:title></dc:title>
      </cc:Work>
    </rdf:RDF>
  </metadata>
  <g
     id="layer1"
     inkscape:label="Layer 1"
     inkscape:groupmode="layer"
     transform="translate(0,-16)">
    <path
       style="opacity:0.75;fill:#797977;fill-opacity:1;stroke:none"
       d="m 23.49245,21.031251 5.19314,-0.0625 2.28276,2.59675 0,6.89652 c 0,0.280705 -0.21963,0.506687 -0.49245,0.506687 l -6.98386,0 C 23.21963,30.968708 23,30.742768 23,30.462063 l 0,-8.924125 c 0,-0.280705 0.21963,-0.506687 0.49245,-0.506687 z"
       id="rect3195-5-8-4"
       inkscape:connector-curvature="0"
       sodipodi:nodetypes="cccsssssc" />
    <path
       style="font-size:medium;font-style:normal;font-variant:normal;font-weight:normal;font-stretch:normal;text-indent:0;text-align:start;text-decoration:none;line-height:normal;letter-spacing:normal;word-spacing:normal;text-transform:none;direction:ltr;block-progression:tb;writing-mode:lr-tb;text-anchor:start;baseline-shift:baseline;color:#000000;fill:#797977;fill-opacity:1;fill-rule:nonzero;stroke:none;stroke-width:1;marker:none;visibility:visible;display:inline;overflow:visible;enable-background:accumulate;font-family:Sans;-inkscape-font-specification:Sans"
       d="M 39.03125,16.984914 C 38.46812,16.984914 38,17.453042 38,18.016164 l 0,0.96875 -1.40625,0 c -0.80896,0 -1.56411,0.629432 -1.5625,1.5 l 0,2.84375 3.03125,-1.34375 0.0312,0 3.96875,0 2.90625,2.125 -6.09375,3.6875 -3.875,-3.53125 0,5.25 c 5e-5,0.805037 0.66376,1.46875 1.4688,1.46875 l 7.0625,0 c 0.80504,0 1.46875,-0.663713 1.46875,-1.46875 l 0,-5.375 0,-0.03125 0,-3.625 c 7.2e-4,-0.839018 -0.72079,-1.5 -1.5625,-1.5 l -1.4375,0 0,-0.96875 c 0,-0.563122 -0.43687,-1.03125 -1,-1.03125 l -1.96875,0 z"
       id="rect4118-5-2-8-5-8"
       inkscape:connector-curvature="0" />
    <path
       style="opacity:0.75;fill:#797977;fill-opacity:1;stroke:none"
       d="m 19.50195,17.010742 0,0.03125 -2.5,0 0,9.90625 4.96875,0 0.0332,-6.948549 2.99805,0.01105 0.0144,-0.444319 -2.26826,-2.555681 z"
       id="rect3964-2"
       inkscape:connector-curvature="0"
       sodipodi:nodetypes="cccccccccc" />
    <path
       style="fill:#969694;fill-opacity:1;stroke:none"
       d="m 4.0089494,16.982417 c 0,5.458972 3.77901,8.863654 6.0312496,10.40625 -0.0765,0.604741 0.11701,1.320547 0.59375,2 0.90387,1.288211 2.4563,1.933333 3.5,1.4375 1.0437,-0.495833 1.15387,-1.961789 0.25,-3.25 -0.69396,-0.989045 -1.77671,-1.588941 -2.71875,-1.59375 l -1.9062496,-2.25 c 1.2519296,-1.736889 2.2499996,-3.981359 2.2499996,-6.75 l -3.9999996,4.6875 -4,-4.6875 z m 1.59375,7.53125 -1.25,1.46875 c -0.94204,0.0048 -2.02479,0.604705 -2.71875,1.59375 -0.90387002,1.288211 -0.79370002,2.754167 0.25,3.25 1.0437,0.495833 2.59613,-0.149289 3.5,-1.4375 0.47674,-0.679453 0.67025,-1.395259 0.59375,-2 0.39814,-0.272693 0.84825,-0.609867 1.3125,-1 -0.38631,-0.359165 -1.01656,-0.978344 -1.6875,-1.875 z m -1.625,2.46875 c 0.18535,-0.0064 0.34344,0.01938 0.5,0.09375 0.62622,0.297501 0.69858,1.164571 0.15625,1.9375 -0.54233,0.772929 -1.46753,1.172501 -2.09375,0.875 -0.62622,-0.297501 -0.69858,-1.164571 -0.15625,-1.9375 0.40674,-0.579697 1.03771,-0.94963 1.59375,-0.96875 z m 8.0624996,0 c 0.55604,0.01912 1.18701,0.389053 1.59375,0.96875 0.54233,0.772929 0.46997,1.639999 -0.15625,1.9375 -0.62622,0.297501 -1.55142,-0.102071 -2.09375,-0.875 -0.54233,-0.772929 -0.46997,-1.639999 0.15625,-1.9375 0.15656,-0.07437 0.31465,-0.100123 0.5,-0.09375 z"
       id="path8377-6-0"
       inkscape:connector-curvature="0" />
    <path
       style="font-size:medium;font-style:normal;font-variant:normal;font-weight:normal;font-stretch:normal;text-indent:0;text-align:start;text-decoration:none;line-height:normal;letter-spacing:normal;word-spacing:normal;text-transform:none;direction:ltr;block-progression:tb;writing-mode:lr-tb;text-anchor:start;baseline-shift:baseline;color:#000000;fill:#3c3c3b;fill-opacity:1;fill-rule:nonzero;stroke:none;stroke-width:1;marker:none;visibility:visible;display:inline;overflow:visible;enable-background:accumulate;font-family:Sans;-inkscape-font-specification:Sans"
       d="m 24.06445,21.010742 c -0.58453,0 -1.0625,0.476234 -1.0625,1.0625 l 0,7.84375 c 0,0.586266 0.47797,1.09375 1.0625,1.09375 l 5.875,0 c 0.58453,0 1.0625,-0.507484 1.0625,-1.09375 l 0,-6.21875 0,-0.21875 -0.125,-0.125 -2,-2.1875 -0.15625,-0.15625 -0.21875,0 z m -0.0625,1 c 0.009,-0.01 0.0365,0 0.0625,0 l 2.9375,0 0,3 3,0 0,4.90625 c 0,0.04532 -0.0105,0.09375 -0.0625,0.09375 l -5.875,0 c -0.052,0 -0.0625,-0.04843 -0.0625,-0.09375 l 0,-7.84375 c 0,-0.02266 -0.009,-0.05254 0,-0.0625 z m 4,0 0.28125,0 1.71875,1.875 0,0.125 -2,0 z"
       id="rect3195-3-3"
       inkscape:connector-curvature="0"
       sodipodi:nodetypes="ssssssccccccssscccsssssscccccc" />
    <path
       style="font-size:medium;font-style:normal;font-variant:normal;font-weight:normal;font-stretch:normal;text-indent:0;text-align:start;text-decoration:none;line-height:normal;letter-spacing:normal;word-spacing:normal;text-transform:none;direction:ltr;block-progression:tb;writing-mode:lr-tb;text-anchor:start;baseline-shift:baseline;color:#000000;fill:#3c3c3b;fill-opacity:1;stroke:none;stroke-width:1;marker:none;visibility:visible;display:inline;overflow:visible;enable-background:accumulate;font-family:Sans;-inkscape-font-specification:Sans"
       d="m 18.06445,17.010742 c -0.58453,0 -1.0625,0.476234 -1.0625,1.0625 l 0,7.84375 c 0,0.586265 0.47797,1.09375 1.0625,1.09375 l 3.9375,0 0,-0.9375 0,-0.0625 0,-8 0.28125,0 1.84375,2 0.75,-0.65625 -2,-2.1875 -0.15625,-0.15625 -0.21875,0 -4.4375,0 z m -0.0625,1 c 0.009,-0.01 0.0365,0 0.0625,0 l 2.9375,0 0,8 -2.9375,0 c -0.052,0 -0.0625,-0.04843 -0.0625,-0.09375 l 0,-7.84375 c 0,-0.02266 -0.009,-0.05254 0,-0.0625 z"
       id="rect3195-6-2-0"
       inkscape:connector-curvature="0" />
    <path
       inkscape:connector-curvature="0"
       style="font-size:medium;font-style:normal;font-variant:normal;font-weight:normal;font-stretch:normal;text-indent:0;text-align:start;text-decoration:none;line-height:normal;letter-spacing:normal;word-spacing:normal;text-transform:none;direction:ltr;block-progression:tb;writing-mode:lr-tb;text-anchor:start;baseline-shift:baseline;opacity:0.5;color:#000000;fill:#ffffff;fill-opacity:1;stroke:none;stroke-width:1;marker:none;visibility:visible;display:inline;overflow:visible;enable-background:accumulate;font-family:Sans;-inkscape-font-specification:Sans"
       d="M 17.9375,16.000001 C 16.87092,16.000001 16,16.870909 16,17.9375 l 0,8.125 C 16,27.129092 16.87092,28 17.9375,28 L 22,28 22,30.0625 C 22,31.129092 22.87092,32 23.9375,32 l 6.125,0 C 31.12908,32 32,31.129092 32,30.0625 l 0,-6.71875 a 0.50005,0.50005 0 0 0 -0.125,-0.3125 l -2.5,-2.875 A 0.50005,0.50005 0 0 0 29,20 l -3,0 0,-0.65625 a 0.50005,0.50005 0 0 0 -0.125,-0.3125 l -2.5,-2.875 A 0.50005,0.50005 0 0 0 23,16.000001 l -5.0625,0 z m 0,1 4.8125,0 L 25,19.53125 25,20 23.9375,20 C 22.87092,20 22,20.870908 22,21.9375 L 22,27 17.9375,27 C 17.40762,27 17,26.592386 17,26.0625 l 0,-8.125 C 17,17.407615 17.40762,17 17.9375,17 z M 23.9375,21 28.75,21 31,23.53125 31,30.0625 C 31,30.592386 30.59238,31 30.0625,31 l -6.125,0 C 23.40762,31 23,30.592386 23,30.0625 l 0,-8.125 C 23,21.407614 23.40762,21 23.9375,21 z"
       id="rect3988-9-3" />
    <path
       style="opacity:0.5;fill:#969694;fill-opacity:1;stroke:none"
       d="M 28,21.993438 28,24 l 1.99668,0 6.4e-4,-0.125883 -1.69558,-1.880188 z"
       id="path4011-86-9"
       inkscape:connector-curvature="0"
       sodipodi:nodetypes="cccccc" />
    <path
       style="opacity:0.5;fill:#969694;fill-opacity:1;stroke:none"
       d="m 22.00268,17.993439 0,2.006561 1.99668,0 L 24,19.874117 22.30442,17.99393 z"
       id="path4011-8-7-1"
       inkscape:connector-curvature="0"
       sodipodi:nodetypes="cccccc" />
    <path
       style="font-size:medium;font-style:normal;font-variant:normal;font-weight:normal;font-stretch:normal;text-indent:0;text-align:start;text-decoration:none;line-height:normal;letter-spacing:normal;word-spacing:normal;text-transform:none;direction:ltr;block-progression:tb;writing-mode:lr-tb;text-anchor:start;baseline-shift:baseline;color:#000000;fill:#3c3c3b;fill-opacity:1;fill-rule:nonzero;stroke:none;stroke-width:1;marker:none;visibility:visible;display:inline;overflow:visible;enable-background:accumulate;font-family:Sans;-inkscape-font-specification:Sans"
       d="m 39.03125,17.000539 c -0.56313,0 -1.03125,0.436878 -1.03125,1 l 0,1 -1.40625,0 c -0.80896,0 -1.56411,0.629432 -1.5625,1.5 l 0,2.8125 0.99976,-0.423861 2.4e-4,-2.451139 c -7.5e-4,-0.353293 0.19238,-0.4375 0.5625,-0.4375 l 1.40625,0 4,0 1.4375,0 c 0.33737,0 0.5627,0.231018 0.5625,0.5 l -0.0158,2.874946 1.01584,0.750054 0,-3.625 c 6.8e-4,-0.839018 -0.72083,-1.5 -1.56254,-1.5 l -1.4375,0 0,-1 c 0,-0.563122 -0.43687,-1 -1,-1 z"
       id="rect4122-0-9"
       inkscape:connector-curvature="0"
       sodipodi:nodetypes="sscsccccsccsccccscsss" />
    <rect
       style="opacity:0.5;fill:#ffffff;fill-opacity:1;stroke:none"
       id="rect4168-9-6"
       width="10"
       height="1"
       x="35.014572"
       y="30.97003"
       rx="0.5"
       ry="0.5" />
    <rect
       style="fill:url(#linearGradient4266-4-4);fill-opacity:1;stroke:none"
       id="rect4148-1-4-1-9"
       width="1"
       height="2"
       x="35.014572"
       y="21.970028" />
    <path
       style="opacity:0.5;fill:none;stroke:#ffffff;stroke-width:1px;stroke-linecap:butt;stroke-linejoin:miter;stroke-opacity:1"
       d="m 44.35833,24.27595 -2.44325,-1.80592 -3.67474,0 -3.02226,1.348088"
       id="path4170-8-3"
       inkscape:connector-curvature="0"
       sodipodi:nodetypes="cccc" />
    <path
       style="font-size:medium;font-style:normal;font-variant:normal;font-weight:normal;font-stretch:normal;text-indent:0;text-align:start;text-decoration:none;line-height:normal;letter-spacing:normal;word-spacing:normal;text-transform:none;direction:ltr;block-progression:tb;writing-mode:lr-tb;text-anchor:start;baseline-shift:baseline;opacity:0.5;color:#000000;fill:#ffffff;fill-opacity:1;stroke:none;stroke-width:1px;marker:none;visibility:visible;display:inline;overflow:visible;enable-background:accumulate;font-family:Sans;-inkscape-font-specification:Sans"
       d="m 4.1026994,18.669917 -1,0.125 c 0,0 0.29764,2.098834 1.59375,4.34375 0.94184,1.631335 2.07175,2.769934 2.625,3.28125 l -1.125,0.9375 -0.15625,0.15625 0,0.25 c 0,0 0.0363,1.200483 -0.96875,2.1875 -0.54297,0.533216 -0.97391,0.808733 -1.25,0.9375 -0.27609,0.128767 -0.34375,0.125 -0.34375,0.125 l 0.0625,1 c 0,0 0.29985,-0.03795 0.6875,-0.21875 0.38765,-0.180798 0.91668,-0.521476 1.53125,-1.125 1.12701,-1.106804 1.23534,-2.29474 1.25,-2.65625 l 1.0625,-0.90625 0.96875,0.84375 c 0.019,0.391425 0.14409,1.538924 1.2499996,2.625 0.61457,0.603524 1.11235,0.944202 1.5,1.125 0.38765,0.180798 0.71875,0.21875 0.71875,0.21875 l 0.0625,-1 c 0,0 -0.0677,0.0038 -0.34375,-0.125 -0.27609,-0.128767 -0.70703,-0.404284 -1.25,-0.9375 -1.0050396,-0.987017 -0.96875,-2.1875 -0.96875,-2.1875 l 0,-0.25 -0.1874996,-0.15625 -1.5,-1.25 c 0,0 -1.58746,-1.307284 -2.78125,-3.375 -1.19217,-2.0649 -1.4375,-3.96875 -1.4375,-3.96875 z m 7.8124996,0.09375 c 0,0 -0.24533,1.903849 -1.4375,3.96875 -0.2198,0.380711 -0.4551,0.736761 -0.6874996,1.0625 l 0.6874996,0.78125 c 0.30286,-0.405372 0.58943,-0.849125 0.875,-1.34375 1.29611,-2.244915 1.5625,-4.34375 1.5625,-4.34375 l -1,-0.125 z"
       id="path8540-5-0-6"
       inkscape:connector-curvature="0" />
    <path
       style="font-size:medium;font-style:normal;font-variant:normal;font-weight:normal;font-stretch:normal;text-indent:0;text-align:start;text-decoration:none;line-height:normal;letter-spacing:normal;word-spacing:normal;text-transform:none;direction:ltr;block-progression:tb;writing-mode:lr-tb;text-anchor:start;baseline-shift:baseline;opacity:0.5;color:#000000;fill:#000000;fill-opacity:1;stroke:none;stroke-width:1px;marker:none;visibility:visible;display:inline;overflow:visible;enable-background:accumulate;font-family:Sans;-inkscape-font-specification:Sans"
       d="m 4.0089494,16.919917 c -0.0183,0.606808 0.0183,1.184856 0.125,1.75 l 6.8437496,8.03125 0.75,-0.6875 -2.9999996,-3.5625 3.1249996,-3.6875 c 0.10668,-0.565144 0.17455,-1.143192 0.15625,-1.75 l -3.9687496,4.65625 -4.03125,-4.75 z m 1.625,7.625 -1.34375,1.5625 0.75,0.6875 1.25,-1.46875 c -0.21699,-0.24854 -0.42356,-0.472123 -0.65625,-0.78125 z"
       id="path8542-8-9-2"
       inkscape:connector-curvature="0" />
    <path
       sodipodi:type="arc"
       style="opacity:0.5;fill:none;stroke:#ffffff;stroke-width:1.30685639;stroke-opacity:1"
       id="path8377-65-0-7-6"
       sodipodi:cx="419.46899"
       sodipodi:cy="-15.488349"
       sodipodi:rx="1.5688932"
       sodipodi:ry="2.7179418"
       d="m 421.03789,-15.488349 a 1.5688932,2.7179418 0 1 1 -3.13779,0 1.5688932,2.7179418 0 1 1 3.13779,0 z"
       transform="matrix(0.55302617,0.26272629,-0.27645826,0.39401127,-232.75921,-75.602948)" />
    <path
       sodipodi:type="arc"
       style="opacity:0.5;fill:none;stroke:#ffffff;stroke-width:1.30685639;stroke-opacity:1"
       id="path8377-65-0-1-1-7"
       sodipodi:cx="419.46899"
       sodipodi:cy="-15.488349"
       sodipodi:rx="1.5688932"
       sodipodi:ry="2.7179418"
       d="m 421.03789,-15.488349 a 1.5688932,2.7179418 0 1 1 -3.13779,0 1.5688932,2.7179418 0 1 1 3.13779,0 z"
       transform="matrix(-0.55302617,0.26272629,0.27645826,0.39401127,248.75921,-75.602948)" />
    <path
       style="font-size:medium;font-style:normal;font-variant:normal;font-weight:normal;font-stretch:normal;text-indent:0;text-align:start;text-decoration:none;line-height:normal;letter-spacing:normal;word-spacing:normal;text-transform:none;direction:ltr;block-progression:tb;writing-mode:lr-tb;text-anchor:start;baseline-shift:baseline;color:#000000;fill:#3c3c3b;fill-opacity:1;fill-rule:nonzero;stroke:none;stroke-width:1;marker:none;visibility:visible;display:inline;overflow:visible;enable-background:accumulate;font-family:Sans;-inkscape-font-specification:Sans"
       d="m 45,24.125539 -6.125,3.6875 L 35,24.250539 35,30 l 1,0 0,-3.499461 2.78125,2.5 L 44,25.875539 44,30 l 1,0 z"
       id="rect4118-5-2-6"
       inkscape:connector-curvature="0"
       sodipodi:nodetypes="ccccccccccc" />
  </g>
</svg>
