<?xml version="1.0" encoding="UTF-8" standalone="no"?>
<!-- Created with Inkscape (http://www.inkscape.org/) -->

<svg
   xmlns:dc="http://purl.org/dc/elements/1.1/"
   xmlns:cc="http://creativecommons.org/ns#"
   xmlns:rdf="http://www.w3.org/1999/02/22-rdf-syntax-ns#"
   xmlns:svg="http://www.w3.org/2000/svg"
   xmlns="http://www.w3.org/2000/svg"
   xmlns:xlink="http://www.w3.org/1999/xlink"
   xmlns:sodipodi="http://sodipodi.sourceforge.net/DTD/sodipodi-0.dtd"
   xmlns:inkscape="http://www.inkscape.org/namespaces/inkscape"
   width="180"
   height="18"
   id="svg2"
   version="1.1"
   inkscape:version="0.48.2 r9819"
   sodipodi:docname="compose-toolbar-aero-inverted.svg"
   inkscape:export-filename="/home/andreasn/SparkleShare/thunderbird-icons/qute/compose-toolbar-aero-inverted.png"
   inkscape:export-xdpi="90"
   inkscape:export-ydpi="90">
  <defs
     id="defs4">
    <linearGradient
       inkscape:collect="always"
       id="linearGradient4437">
      <stop
         style="stop-color:#000000;stop-opacity:1;"
         offset="0"
         id="stop4439" />
      <stop
         style="stop-color:#000000;stop-opacity:0;"
         offset="1"
         id="stop4441" />
    </linearGradient>
    <linearGradient
       id="linearGradient4507">
      <stop
         id="stop4509"
         offset="0"
         style="stop-color:#707d85;stop-opacity:1;" />
      <stop
         id="stop4511"
         offset="1"
         style="stop-color:#4c565e;stop-opacity:1" />
    </linearGradient>
    <linearGradient
       id="linearGradient5160">
      <stop
         style="stop-color:#707d85;stop-opacity:1;"
         offset="0"
         id="stop5162" />
      <stop
         style="stop-color:#525d66;stop-opacity:1;"
         offset="1"
         id="stop5164" />
    </linearGradient>
    <linearGradient
       gradientTransform="translate(19.052715,1036.3453)"
       y2="-24"
       x2="459.59375"
       y1="-25.65625"
       x1="459.59375"
       gradientUnits="userSpaceOnUse"
       id="linearGradient4266-4"
       xlink:href="#linearGradient4243-7-1"
       inkscape:collect="always" />
    <linearGradient
       inkscape:collect="always"
       id="linearGradient4243-7-1">
      <stop
         style="stop-color:#141514;stop-opacity:1;"
         offset="0"
         id="stop4245-2-8" />
      <stop
         style="stop-color:#141514;stop-opacity:0;"
         offset="1"
         id="stop4247-1-6" />
    </linearGradient>
    <linearGradient
       gradientTransform="translate(19.05271,1016.3453)"
       y2="-24"
       x2="459.59375"
       y1="-25.65625"
       x1="459.59375"
       gradientUnits="userSpaceOnUse"
       id="linearGradient4266-4-5"
       xlink:href="#linearGradient4243-7-1-7"
       inkscape:collect="always" />
    <linearGradient
       inkscape:collect="always"
       id="linearGradient4243-7-1-7">
      <stop
         style="stop-color:#141514;stop-opacity:1;"
         offset="0"
         id="stop4245-2-8-4" />
      <stop
         style="stop-color:#141514;stop-opacity:0;"
         offset="1"
         id="stop4247-1-6-9" />
    </linearGradient>
    <linearGradient
       gradientTransform="translate(19.05271,1016.3453)"
       inkscape:collect="always"
       xlink:href="#linearGradient4243-1-4"
       id="linearGradient4249-3-9"
       x1="459.59375"
       y1="-25.65625"
       x2="459.59375"
       y2="-24"
       gradientUnits="userSpaceOnUse" />
    <linearGradient
       inkscape:collect="always"
       id="linearGradient4243-1-4">
      <stop
         style="stop-color:#141514;stop-opacity:1;"
         offset="0"
         id="stop4245-4-5" />
      <stop
         style="stop-color:#141514;stop-opacity:0;"
         offset="1"
         id="stop4247-9-9" />
    </linearGradient>
    <linearGradient
       inkscape:collect="always"
       xlink:href="#linearGradient4437"
       id="linearGradient4363"
       x1="129.22502"
       y1="1047.8455"
       x2="131.66301"
       y2="1045.4075"
       gradientUnits="userSpaceOnUse" />
    <linearGradient
       inkscape:collect="always"
       id="linearGradient4437-5">
      <stop
         style="stop-color:#000000;stop-opacity:1;"
         offset="0"
         id="stop4439-71" />
      <stop
         style="stop-color:#000000;stop-opacity:0;"
         offset="1"
         id="stop4441-6" />
    </linearGradient>
    <linearGradient
       y2="1045.4075"
       x2="131.66301"
       y1="1047.8455"
       x1="129.22502"
       gradientUnits="userSpaceOnUse"
       id="linearGradient4380"
       xlink:href="#linearGradient4437-5"
       inkscape:collect="always"
       gradientTransform="matrix(-1,0,0,1,269.94078,0)" />
    <linearGradient
       inkscape:collect="always"
       xlink:href="#linearGradient4437"
       id="linearGradient4405"
       x1="134.82669"
       y1="1036.412"
       x2="134.82669"
       y2="1039.9476"
       gradientUnits="userSpaceOnUse" />
    <filter
       inkscape:collect="always"
       id="filter4441"
       x="-0.12016168"
       width="1.2403234"
       y="-0.11983876"
       height="1.2396775">
      <feGaussianBlur
         inkscape:collect="always"
         stdDeviation="0.69959884"
         id="feGaussianBlur4443" />
    </filter>
    <radialGradient
       inkscape:collect="always"
       xlink:href="#linearGradient4507"
       id="radialGradient4542"
       cx="156.03261"
       cy="1045.3637"
       fx="156.03261"
       fy="1045.3637"
       r="2.9998"
       gradientTransform="matrix(1,0,0,1.3334222,0,-348.54749)"
       gradientUnits="userSpaceOnUse" />
    <filter
       inkscape:collect="always"
       id="filter4707"
       x="-0.13714297"
       width="1.2742859"
       y="-0.1066666"
       height="1.2133332">
      <feGaussianBlur
         inkscape:collect="always"
         stdDeviation="0.39999975"
         id="feGaussianBlur4709" />
    </filter>
    <filter
       color-interpolation-filters="sRGB"
       inkscape:collect="always"
       id="filter4707-7"
       x="-0.13714297"
       width="1.2742859"
       y="-0.1066666"
       height="1.2133332">
      <feGaussianBlur
         inkscape:collect="always"
         stdDeviation="0.39999975"
         id="feGaussianBlur4709-8" />
    </filter>
    <filter
       inkscape:collect="always"
       id="filter4854"
       x="-0.1438128"
       width="1.2876256"
       y="-0.10295287"
       height="1.2059057">
      <feGaussianBlur
         inkscape:collect="always"
         stdDeviation="0.59922001"
         id="feGaussianBlur4856" />
    </filter>
    <radialGradient
       inkscape:collect="always"
       xlink:href="#linearGradient5160-0"
       id="radialGradient5425-8"
       cx="9.1864672"
       cy="12.481728"
       fx="9.1864672"
       fy="12.481728"
       r="7.0028734"
       gradientTransform="matrix(1,0,0,1.0028765,9.1427196e-4,1034.3773)"
       gradientUnits="userSpaceOnUse" />
    <linearGradient
       id="linearGradient5160-0">
      <stop
         style="stop-color:#707d85;stop-opacity:1;"
         offset="0"
         id="stop5162-5" />
      <stop
         style="stop-color:#525d66;stop-opacity:1;"
         offset="1"
         id="stop5164-8" />
    </linearGradient>
    <linearGradient
       inkscape:collect="always"
       xlink:href="#linearGradient5272-70"
       id="linearGradient11547-2"
       x1="12.951772"
       y1="5.376986"
       x2="12.951772"
       y2="14.843808"
       gradientUnits="userSpaceOnUse"
       gradientTransform="translate(9.1427196e-4,1034.4031)" />
    <linearGradient
       inkscape:collect="always"
       id="linearGradient5272-70">
      <stop
         style="stop-color:#000000;stop-opacity:1;"
         offset="0"
         id="stop5274-5" />
      <stop
         style="stop-color:#414c55;stop-opacity:1"
         offset="1"
         id="stop5276-9" />
    </linearGradient>
    <radialGradient
       inkscape:collect="always"
       xlink:href="#linearGradient5160-3"
       id="radialGradient5425-5"
       cx="9.1864672"
       cy="12.481728"
       fx="9.1864672"
       fy="12.481728"
       r="7.0028734"
       gradientTransform="matrix(1,0,0,1.0028765,9.1427196e-4,1034.3773)"
       gradientUnits="userSpaceOnUse" />
    <linearGradient
       id="linearGradient5160-3">
      <stop
         style="stop-color:#707d85;stop-opacity:1;"
         offset="0"
         id="stop5162-54" />
      <stop
         style="stop-color:#525d66;stop-opacity:1;"
         offset="1"
         id="stop5164-87" />
    </linearGradient>
    <linearGradient
       inkscape:collect="always"
       xlink:href="#linearGradient5272-706"
       id="linearGradient11547-0"
       x1="12.951772"
       y1="5.376986"
       x2="12.951772"
       y2="14.843808"
       gradientUnits="userSpaceOnUse"
       gradientTransform="translate(9.1427196e-4,1034.4031)" />
    <linearGradient
       inkscape:collect="always"
       id="linearGradient5272-706">
      <stop
         style="stop-color:#000000;stop-opacity:1;"
         offset="0"
         id="stop5274-9" />
      <stop
         style="stop-color:#414c55;stop-opacity:1"
         offset="1"
         id="stop5276-8" />
    </linearGradient>
    <linearGradient
       inkscape:collect="always"
       xlink:href="#linearGradient5272-70-3"
       id="linearGradient3346-8"
       gradientUnits="userSpaceOnUse"
       gradientTransform="translate(9.143e-4,1014.4031)"
       x1="12.951772"
       y1="5.376986"
       x2="12.951772"
       y2="14.843808" />
    <linearGradient
       inkscape:collect="always"
       id="linearGradient5272-70-3">
      <stop
         style="stop-color:#000000;stop-opacity:1;"
         offset="0"
         id="stop5274-5-7" />
      <stop
         style="stop-color:#414c55;stop-opacity:1"
         offset="1"
         id="stop5276-9-2" />
    </linearGradient>
    <linearGradient
       inkscape:collect="always"
       xlink:href="#linearGradient5272-0"
       id="linearGradient5435-9"
       x1="9.0104847"
       y1="10.937551"
       x2="9.0104847"
       y2="6.684546"
       gradientUnits="userSpaceOnUse"
       gradientTransform="translate(9.1427196e-4,-1052.4031)" />
    <linearGradient
       inkscape:collect="always"
       id="linearGradient5272-0">
      <stop
         style="stop-color:#000000;stop-opacity:1;"
         offset="0"
         id="stop5274-0" />
      <stop
         style="stop-color:#414c55;stop-opacity:1"
         offset="1"
         id="stop5276-4" />
    </linearGradient>
    <radialGradient
       r="5.5057445"
       fy="14.152629"
       fx="8.2211885"
       cy="14.152629"
       cx="8.2211885"
       gradientTransform="matrix(1.2409112,1.2236587e-8,0,1.1514427,16.004738,1031.8739)"
       gradientUnits="userSpaceOnUse"
       id="radialGradient4402-4"
       xlink:href="#linearGradient5160-9"
       inkscape:collect="always" />
    <linearGradient
       id="linearGradient5160-9">
      <stop
         style="stop-color:#707d85;stop-opacity:1;"
         offset="0"
         id="stop5162-8" />
      <stop
         style="stop-color:#525d66;stop-opacity:1;"
         offset="1"
         id="stop5164-4" />
    </linearGradient>
    <linearGradient
       y2="11.726083"
       x2="4.8951864"
       y1="1.697361"
       x1="4.8951864"
       gradientTransform="translate(17.985314,1035.3719)"
       gradientUnits="userSpaceOnUse"
       id="linearGradient4404-1"
       xlink:href="#linearGradient5272-7-3"
       inkscape:collect="always" />
    <linearGradient
       inkscape:collect="always"
       id="linearGradient5272-7-3">
      <stop
         style="stop-color:#000000;stop-opacity:1;"
         offset="0"
         id="stop5274-6-7" />
      <stop
         style="stop-color:#414c55;stop-opacity:1"
         offset="1"
         id="stop5276-7-8" />
    </linearGradient>
    <linearGradient
       id="linearGradient5160-5">
      <stop
         style="stop-color:#707d85;stop-opacity:1;"
         offset="0"
         id="stop5162-7" />
      <stop
         style="stop-color:#525d66;stop-opacity:1;"
         offset="1"
         id="stop5164-83" />
    </linearGradient>
    <linearGradient
       inkscape:collect="always"
       id="linearGradient5272-07">
      <stop
         style="stop-color:#000000;stop-opacity:1;"
         offset="0"
         id="stop5274-7" />
      <stop
         style="stop-color:#414c55;stop-opacity:1"
         offset="1"
         id="stop5276-0" />
    </linearGradient>
    <radialGradient
       inkscape:collect="always"
       xlink:href="#linearGradient5160-5"
       id="radialGradient12749-0"
       cx="120.66729"
       cy="8.1640472"
       fx="120.66729"
       fy="8.1640472"
       r="3.0252249"
       gradientTransform="matrix(1,0,0,1.3422124,9.1427196e-4,1031.9811)"
       gradientUnits="userSpaceOnUse" />
    <linearGradient
       id="linearGradient4441">
      <stop
         style="stop-color:#707d85;stop-opacity:1;"
         offset="0"
         id="stop4443" />
      <stop
         style="stop-color:#525d66;stop-opacity:1;"
         offset="1"
         id="stop4445" />
    </linearGradient>
    <linearGradient
       inkscape:collect="always"
       xlink:href="#linearGradient5272-07"
       id="linearGradient12741-6"
       x1="121.26404"
       y1="5.4967866"
       x2="121.26404"
       y2="10.031119"
       gradientUnits="userSpaceOnUse"
       gradientTransform="translate(9.1427196e-4,1034.4031)" />
    <linearGradient
       inkscape:collect="always"
       xlink:href="#linearGradient5272-77"
       id="linearGradient4509-6"
       gradientUnits="userSpaceOnUse"
       gradientTransform="translate(9.1427196e-4,1034.4031)"
       x1="121.26404"
       y1="5.4967866"
       x2="121.26404"
       y2="10.031119" />
    <linearGradient
       inkscape:collect="always"
       id="linearGradient5272-77">
      <stop
         style="stop-color:#000000;stop-opacity:1;"
         offset="0"
         id="stop5274-4" />
      <stop
         style="stop-color:#414c55;stop-opacity:1"
         offset="1"
         id="stop5276-08" />
    </linearGradient>
    <linearGradient
       gradientTransform="translate(0.03095727,1034.4351)"
       y2="9.824338"
       x2="63.301666"
       y1="4.3433027"
       x1="63.301666"
       gradientUnits="userSpaceOnUse"
       id="linearGradient5027-9"
       xlink:href="#linearGradient5272-79"
       inkscape:collect="always" />
    <linearGradient
       inkscape:collect="always"
       id="linearGradient5272-79">
      <stop
         style="stop-color:#000000;stop-opacity:1;"
         offset="0"
         id="stop5274-1" />
      <stop
         style="stop-color:#414c55;stop-opacity:1"
         offset="1"
         id="stop5276-1" />
    </linearGradient>
    <linearGradient
       y2="9.824338"
       x2="63.301666"
       y1="4.3433027"
       x1="63.301666"
       gradientTransform="translate(0.030957,1034.4351)"
       gradientUnits="userSpaceOnUse"
       id="linearGradient4586-2"
       xlink:href="#linearGradient5272-79-9"
       inkscape:collect="always" />
    <linearGradient
       inkscape:collect="always"
       id="linearGradient5272-79-9">
      <stop
         style="stop-color:#000000;stop-opacity:1;"
         offset="0"
         id="stop5274-1-9" />
      <stop
         style="stop-color:#414c55;stop-opacity:1"
         offset="1"
         id="stop5276-1-6" />
    </linearGradient>
  </defs>
  <sodipodi:namedview
     id="base"
     pagecolor="#ffffff"
     bordercolor="#666666"
     borderopacity="1.0"
     inkscape:pageopacity="0.0"
     inkscape:pageshadow="2"
     inkscape:zoom="5.6568542"
     inkscape:cx="78.521415"
     inkscape:cy="31.362264"
     inkscape:document-units="px"
     inkscape:current-layer="layer1"
     showgrid="false"
     inkscape:snap-nodes="false"
     inkscape:snap-grids="false"
     inkscape:window-width="1920"
     inkscape:window-height="1011"
     inkscape:window-x="0"
     inkscape:window-y="34"
     inkscape:window-maximized="1"
     showguides="true"
     inkscape:guide-bbox="true"
     inkscape:snap-bbox="true">
    <inkscape:grid
       type="xygrid"
       id="grid2993"
       empspacing="5"
       visible="true"
       enabled="true"
       snapvisiblegridlinesonly="true" />
    <sodipodi:guide
       orientation="1,0"
       position="162.0625,-0.125"
       id="guide4973" />
    <sodipodi:guide
       orientation="1,0"
       position="144.0625,-0.125"
       id="guide4975" />
    <sodipodi:guide
       orientation="1,0"
       position="126.0625,-0.0625"
       id="guide4977" />
    <sodipodi:guide
       orientation="1,0"
       position="107.9375,-0.125"
       id="guide4979" />
    <sodipodi:guide
       orientation="1,0"
       position="90,-0.125"
       id="guide4981" />
    <sodipodi:guide
       orientation="1,0"
       position="72,-0.125"
       id="guide4983" />
    <sodipodi:guide
       orientation="1,0"
       position="53.9375,-0.125"
       id="guide4985" />
    <sodipodi:guide
       orientation="1,0"
       position="35.9375,0.125"
       id="guide4987" />
    <sodipodi:guide
       orientation="1,0"
       position="17.9375,-0.1875"
       id="guide4989" />
  </sodipodi:namedview>
  <metadata
     id="metadata7">
    <rdf:RDF>
      <cc:Work
         rdf:about="">
        <dc:format>image/svg+xml</dc:format>
        <dc:type
           rdf:resource="http://purl.org/dc/dcmitype/StillImage" />
        <dc:title></dc:title>
      </cc:Work>
    </rdf:RDF>
  </metadata>
  <g
     inkscape:label="Layer 1"
     inkscape:groupmode="layer"
     id="layer1"
     transform="translate(0,-1034.3622)">
    <path
       style="opacity:1;fill:#ffffff;fill-opacity:1;stroke:none"
       d="M 137.59375 5.0625 L 135.375 7.53125 L 135 7.96875 L 134.625 7.53125 L 132.4375 5.09375 C 132.82402 6.38815 133.42037 7.6091 134.0625 8.5 L 134.28125 8.8125 L 134.03125 9.125 L 131.6875 11.84375 L 131.5 12.0625 C 131.09178 11.941003 130.31629 11.997857 129.625 12.6875 C 128.76274 13.5476 128.87895 14.46235 129.28125 14.78125 C 129.68355 15.10015 130.3132 15.1691 131.28125 14.375 C 132.22278 13.602656 132.0117 12.461361 131.78125 12.1875 L 131.8125 12.21875 L 132.09375 12 C 132.87918 11.4114 134.27451 10.33085 134.65625 9.96875 L 135 9.65625 L 135.34375 9.96875 C 135.67194 10.28085 136.97619 11.28825 137.90625 11.96875 L 138.21875 12.1875 L 138.28125 12.15625 C 138.04496 12.38775 137.78195 13.5809 138.75 14.375 C 139.71805 15.1691 140.3477 15.10015 140.75 14.78125 C 141.1523 14.46235 141.23726 13.5476 140.375 12.6875 C 139.66513 11.979318 138.89771 11.927883 138.5 12.0625 L 138.3125 11.84375 L 136 9.15625 L 135.75 8.84375 L 135.96875 8.53125 C 136.61443 7.63895 137.20893 6.3834 137.59375 5.0625 z "
       transform="translate(0,1034.3622)"
       id="path6866" />
    <path
       style="font-size:medium;font-style:normal;font-variant:normal;font-weight:normal;font-stretch:normal;text-indent:0;text-align:start;text-decoration:none;line-height:normal;letter-spacing:normal;word-spacing:normal;text-transform:none;direction:ltr;block-progression:tb;writing-mode:lr-tb;text-anchor:start;baseline-shift:baseline;color:#000000;fill:#000000;fill-opacity:1;stroke:none;stroke-width:3;marker:none;visibility:visible;display:inline;overflow:visible;enable-background:accumulate;font-family:Sans;-inkscape-font-specification:Sans;opacity:0.5"
       d="M 57.03125 0.96875 L 57.03125 12.4375 L 61.9375 17.84375 L 67.03125 12.96875 L 67.03125 3 L 65.0625 3 L 65.0625 0.96875 L 57.03125 0.96875 z M 57.96875 2 L 64 2 L 64 10.1875 L 61.90625 12.5625 L 60 10.21875 L 60 4 L 61 4 L 61 9.875 L 61.9375 11 L 63 9.8125 L 63 3 L 58.96875 3 L 58.96875 11.53125 L 61.96875 14.78125 L 64.96875 12 L 64.96875 4.03125 L 65.96875 4.03125 L 65.96875 12.40625 L 61.9375 16.21875 L 57.96875 11.90625 L 57.96875 2 z "
       transform="translate(0,1034.3622)"
       id="path12262-8-0" />
    <path
       style="color:#000000;fill:#ffffff;fill-opacity:1;stroke:none;stroke-width:1;marker:none;visibility:visible;display:inline;overflow:visible;enable-background:accumulate"
       d="M 120.96875 4.03125 C 119.84109 4.03135 118.9375 4.9287 118.9375 6.0625 C 118.9375 7.1424 119.77053 8.01375 120.8125 8.09375 L 121.4375 8.15625 L 121.28125 8.71875 C 121.22312 8.93925 121.0303 9.0608 120.9375 9.25 C 121.27203 9.0343 121.751 8.92395 122 8.65625 C 122.6328 7.97595 123 7.147 123 6.0625 C 123 4.9287 122.09642 4.03125 120.96875 4.03125 z "
       transform="translate(0,1034.3622)"
       id="path12684-2-8" />
    <path
       style="color:#000000;fill:#ffffff;fill-opacity:1;stroke:none;stroke-width:1;marker:none;visibility:visible;display:inline;overflow:visible;enable-background:accumulate"
       d="M 113.9375 4.03125 C 112.80984 4.03135 111.9375 4.9287 111.9375 6.0625 C 111.9375 7.1424 112.77053 8.01375 113.8125 8.09375 L 114.40625 8.15625 L 114.25 8.71875 C 114.18945 8.94845 114.00425 9.08525 113.90625 9.28125 C 114.2516 9.06135 114.74453 8.93095 115 8.65625 C 115.6328 7.97595 115.96875 7.147 115.96875 6.0625 C 115.96875 4.9287 115.06517 4.03125 113.9375 4.03125 z "
       transform="translate(0,1034.3622)"
       id="path12684-2-9-3" />
    <path
       style="opacity:1;fill:#ffffff;fill-opacity:1;stroke:none"
       d="m 79.65625,1037.3622 c -1.473178,0 -2.65625,1.1518 -2.65625,2.625 l 0,2.125 0,0.2188 0,1.0312 -0.46875,0 c -0.300855,0 -0.53125,0.1829 -0.53125,0.4063 l 0,5.125 c 0,0.2233 0.230395,0.375 0.53125,0.375 l 8.9375,0 c 0.300855,0 0.53125,-0.1517 0.53125,-0.375 l 0,-5.125 c 0,-0.2234 -0.230395,-0.4063 -0.53125,-0.4063 l -0.46875,0 0,-1.0312 0,-0.2188 0,-2.125 c 0,-1.4732 -1.151822,-2.625 -2.625,-2.625 l -2.71875,0 z m 0.0625,1 2.59375,0 c 0.946088,0 1.71875,0.7727 1.71875,1.7188 L 84,1043.3622 l -6,0 0,-3.2812 c 0,-0.9461 0.772662,-1.7188 1.71875,-1.7188 z"
       id="rect4398"
       inkscape:connector-curvature="0" />
    <path
       style="fill:#ffffff;fill-opacity:1;stroke:none;display:inline"
       d="M 13.03125 3 L 13.03125 3.53125 A 0.50005 0.50005 0 0 1 12.53125 4.03125 L 10.5 4.03125 A 0.50005 0.50005 0 0 1 10 3.53125 L 10 3.03125 L 8 3.03125 L 8 3.53125 A 0.50005 0.50005 0 0 1 7.5 4.03125 L 5.5 4.03125 A 0.50005 0.50005 0 0 1 5 3.53125 L 5 3.03125 L 3.0625 3.03125 L 3.0625 5 L 3.59375 5 A 0.50005 0.50005 0 0 1 4.09375 5.5 L 4.09375 7.5625 A 0.50005 0.50005 0 0 1 3.59375 8.0625 L 3.03125 8.0625 L 3.03125 10.03125 L 3.5 10.03125 A 0.50005 0.50005 0 0 1 4 10.53125 L 4.03125 12.53125 A 0.50005 0.50005 0 0 1 3.53125 13.03125 L 3 13.03125 L 3 15 L 5.03125 15.03125 L 5.03125 14.5 A 0.50005 0.50005 0 0 1 5.53125 14 L 7.5625 14 A 0.50005 0.50005 0 0 1 8.0625 14.5 L 8.0625 15 L 10 15 L 10 14.5 A 0.50005 0.50005 0 0 1 10.5 14 L 12.5 14 A 0.50005 0.50005 0 0 1 13 14.5 L 13 15 L 15 15 L 15 13.03125 L 14.5 13.03125 A 0.50005 0.50005 0 0 1 14 12.53125 L 14 10.59375 A 0.50005 0.50005 0 0 1 14.5 10.09375 L 14.96875 10.09375 L 14.96875 8.09375 L 14.5 8.09375 A 0.50005 0.50005 0 0 1 14 7.59375 L 14 5.5625 A 0.50005 0.50005 0 0 1 14.5 5.0625 L 15 5.0625 L 15 3 L 13.03125 3 z M 5.5 5.03125 L 12.5 5.03125 C 12.761792 5.03125 12.999974 5.26945 13 5.53125 L 13 12.53125 C 12.999974 12.79305 12.761792 13.03125 12.5 13.03125 L 5.5 13.03125 L 5.40625 13.03125 C 5.1770488 12.98725 4.9958883 12.76455 5 12.53125 L 5 5.53125 C 5.0000262 5.26945 5.2382078 5.03125 5.5 5.03125 z "
       transform="translate(0,1034.3622)"
       id="path11531-3" />
    <path
       style="font-size:medium;font-style:normal;font-variant:normal;font-weight:normal;font-stretch:normal;text-indent:0;text-align:start;text-decoration:none;line-height:normal;letter-spacing:normal;word-spacing:normal;text-transform:none;direction:ltr;block-progression:tb;writing-mode:lr-tb;text-anchor:start;color:#000000;fill:#ffffff;fill-opacity:1;stroke:none;stroke-width:2;marker:none;visibility:visible;display:inline;overflow:visible;enable-background:accumulate;font-family:Bitstream Charter;-inkscape-font-specification:Bitstream Charter"
       d="m 42.648135,1046.9276 c -0.594985,-1.0177 -1.228842,-1.9499 -1.984378,-2.775 l -1.659571,1.5193 c 1.225373,1.1556 2.027981,2.5794 2.911952,4.7018 l 2.09142,-0.028 c 1.331299,-5.3391 4.040809,-9.5501 7.982252,-11.9954 -5.336512,1.1828 -8.149392,5.7521 -9.341675,8.5777 z"
       id="path11625"
       sodipodi:nodetypes="ccccccc"
       inkscape:connector-curvature="0" />
    <path
       style="font-size:medium;font-style:normal;font-variant:normal;font-weight:normal;font-stretch:normal;text-indent:0;text-align:start;text-decoration:none;line-height:normal;letter-spacing:normal;word-spacing:normal;text-transform:none;direction:ltr;block-progression:tb;writing-mode:lr-tb;text-anchor:start;baseline-shift:baseline;color:#000000;fill:#000000;fill-opacity:1;fill-rule:nonzero;stroke:none;stroke-width:1;marker:none;visibility:visible;display:inline;overflow:visible;enable-background:accumulate;font-family:Sans;-inkscape-font-specification:Sans;opacity:0.5"
       d="M 79.65625 2 C 77.646369 2 76 3.6151 76 5.625 L 76 7.96875 L 75.96875 7.96875 C 75.456226 7.96875 75.03125 8.4269 75.03125 8.9375 L 75.03125 15.09375 C 75.03125 15.60425 75.456226 16.03125 75.96875 16.03125 L 86.03125 16.03125 C 86.543774 16.03125 86.96875 15.60425 86.96875 15.09375 L 86.96875 8.9375 C 86.96875 8.4269 86.543774 7.96875 86.03125 7.96875 L 86 7.96875 L 86 5.625 C 86 3.6151 84.384881 2 82.375 2 L 79.65625 2 z M 79.65625 3 L 82.375 3 C 83.848178 3 85 4.1518 85 5.625 L 85 7.75 L 85 7.96875 L 85 9 L 85.46875 9 C 85.769605 9 86 9.18285 86 9.40625 L 86 14.53125 C 86 14.75455 85.769605 14.90625 85.46875 14.90625 L 76.53125 14.90625 C 76.230395 14.90625 76 14.75455 76 14.53125 L 76 9.40625 C 76 9.18285 76.230395 9 76.53125 9 L 77 9 L 77 7.96875 L 77 7.75 L 77 5.625 C 77 4.1518 78.183072 3 79.65625 3 z M 79.71875 4 C 78.772662 4 78 4.77265 78 5.71875 L 78 9 L 84 9 L 84.03125 5.71875 C 84.03125 4.77265 83.258588 4 82.3125 4 L 79.71875 4 z M 79.71875 5 L 82.3125 5 C 82.721885 5 83.03125 5.30935 83.03125 5.71875 L 83.03125 7.96875 L 79 7.96875 L 79 5.71875 C 79 5.30935 79.309365 5 79.71875 5 z "
       id="rect12480"
       transform="translate(0,1034.3622)" />
    <path
       style="font-size:medium;font-style:normal;font-variant:normal;font-weight:normal;font-stretch:normal;text-indent:0;text-align:start;text-decoration:none;line-height:normal;letter-spacing:normal;word-spacing:normal;text-transform:none;direction:ltr;block-progression:tb;writing-mode:lr-tb;text-anchor:start;baseline-shift:baseline;opacity:0.5;color:#000000;fill:#000000;fill-opacity:1;fill-rule:nonzero;stroke:none;stroke-width:1;marker:none;visibility:visible;display:inline;overflow:visible;enable-background:accumulate;font-family:Sans;-inkscape-font-specification:Sans"
       d="m 169.99219,1036.3622 c -0.56313,0 -1,0.4682 -1,1.0313 l 0,0.9688 -1.4375,0 c -0.80898,0 -1.56411,0.6294 -1.5625,1.5 l 0.0312,2.0624 0,0.7813 0.6875,-0.3125 2.46875,-1.0625 3.8125,0 1.96875,1.4375 0,1.3125 -5.09375,3.0625 -3.03125,-2.75 -0.84375,-0.75 0,1.125 0,4.0937 c 0,0.805 0.66369,1.4687 1.46875,1.4688 l 7.0625,0 c 0.80506,0 1.46875,-0.6638 1.46875,-1.4688 l 0,-4.5 0,-0.875 -0.0312,0.031 0,-0.062 0.0312,0.031 0,-0.9687 0,-2.6562 c 6.2e-4,-0.8391 -0.72079,-1.5 -1.5625,-1.5 l -1.4375,0 0,-0.9688 c 0,-0.5631 -0.46812,-1.0313 -1.03125,-1.0313 l -1.96875,0 z m -2.4375,3.0001 1.83853,0 0.62106,-1.0002 -0.0117,-0.9931 2.00113,-0.01 0.006,1.0075 0.55236,0.9923 1.86804,0 c 0.33737,0 0.5627,0.231 0.5625,0.5 l 0,1.7187 -1.53125,-1.125 -0.125,-0.1253 -0.15625,0 -4.15625,0 -0.0937,0 -0.0937,0.031 -1.8125,0.8125 -0.0312,-1.3124 c -6.5e-4,-0.3533 0.1924,-0.5 0.5625,-0.5 z m 7.4375,5.8749 0,3.625 c 0,0.2682 -0.20043,0.4688 -0.46875,0.4688 l -7.0625,0 c -0.26832,0 -0.46875,-0.2006 -0.46875,-0.4688 l 0,-2.9687 2.75,2.5 z"
       id="rect4122-0"
       inkscape:connector-curvature="0"
       sodipodi:nodetypes="csccccccccccccccscsscccccccccsscccccccccccccccccccccccssssccc" />
    <rect
       style="fill:url(#linearGradient4266-4);fill-opacity:1;stroke:none"
       id="rect4148-1-4-1"
       width="1"
       height="2"
       x="166.03008"
       y="1041.3451" />
    <path
       style="fill:#ffffff;fill-opacity:1;stroke:none"
       d="M 147.15625 3 C 147.08055 3 147.03125 3.049 147.03125 3.125 L 147.03125 11 L 152 11 L 152 7 C 152 6.4298 152.64176 6 153 6 L 150.03125 6 L 150 3 L 147.15625 3 z M 151 3 L 151 5 L 152.96875 5 L 152.96875 4.875 L 151.3125 3 L 151 3 z M 153.125 7 C 153.0493 7 153 7.049 153 7.125 L 153 14.84375 C 153 14.91975 153.0493 15 153.125 15 L 158.84375 15 C 158.91945 15 159 14.91995 159 14.84375 L 159 10 L 156 10 L 156 7 L 153.125 7 z M 157 7 L 157 9 L 158.96875 9 L 158.96875 8.875 L 157.3125 7 L 157 7 z "
       id="rect4556-6"
       transform="translate(0,1034.3622)" />
    <path
       style="fill:#ffffff;fill-opacity:1;stroke:none"
       d="m 167.5,1039.3622 c -0.277,0 -0.5,0.223 -0.5,0.5 l 0,1.3125 1.9375,-0.8125 4.46875,0.031 1.59375,1.1875 0,-1.7188 c 0,-0.277 -0.223,-0.5 -0.5,-0.5 l -1.91767,0 -0.57843,-0.9985 -0.004,-0.9937 -1.99219,-0.01 -0.008,1.0015 -0.58232,0.9985 z m 7.5,5.8438 -5.25,3.1562 -2.75,-2.5 0,3 c 0,0.277 0.223,0.5 0.5,0.5 l 7,0 c 0.277,0 0.5,-0.223 0.5,-0.5 z"
       id="rect4792"
       inkscape:connector-curvature="0"
       sodipodi:nodetypes="ssccccssccccccscccssssc" />
    <path
       style="font-size:medium;font-style:normal;font-variant:normal;font-weight:normal;font-stretch:normal;text-indent:0;text-align:start;text-decoration:none;line-height:normal;letter-spacing:normal;word-spacing:normal;text-transform:none;direction:ltr;block-progression:tb;writing-mode:lr-tb;text-anchor:start;baseline-shift:baseline;color:#000000;fill:#000000;fill-opacity:1;fill-rule:nonzero;stroke:none;stroke-width:1;marker:none;visibility:visible;display:inline;overflow:visible;enable-background:accumulate;font-family:Sans;-inkscape-font-specification:Sans;opacity:0.5"
       d="m 12.4375,1036.375 a 0.50005,0.50005 0 0 0 -0.40625,0.5 l 0,0.5312 -1.03125,0 0,-0.5 a 0.50005,0.50005 0 0 0 -0.5,-0.5 l -3,0 a 0.50005,0.50005 0 0 0 -0.5,0.5 l 0,0.5 -1,0 0,-0.5 a 0.50005,0.50005 0 0 0 -0.5,-0.5 l -2.9375,0 a 0.50005,0.50005 0 0 0 -0.5,0.5 l 0,2.9688 a 0.50005,0.50005 0 0 0 0.5,0.5 l 0.53125,0 0,1.0625 -0.5625,0 a 0.50005,0.50005 0 0 0 -0.5,0.5 l 0,3 a 0.50005,0.50005 0 0 0 0.5,0.5 l 0.46875,0 0.03125,0.9687 -0.5,0 A 0.50005,0.50005 0 0 0 2,1046.9062 l 0,2.9688 a 0.50005,0.50005 0 0 0 0.5,0.5 l 3.03125,0.031 a 0.50005,0.50005 0 0 0 0.5,-0.5 l 0,-0.5312 1.03125,0 0,0.5 a 0.50005,0.50005 0 0 0 0.5,0.5 l 2.9375,0 a 0.50005,0.50005 0 0 0 0.5,-0.5 l 0,-0.5 1,0 0,0.5 a 0.50005,0.50005 0 0 0 0.5,0.5 l 3,0 a 0.50005,0.50005 0 0 0 0.5,-0.5 l 0,-2.9688 a 0.50005,0.50005 0 0 0 -0.5,-0.5 l -0.5,0 0,-0.9374 0.46875,0 a 0.50005,0.50005 0 0 0 0.5,-0.5 l 0,-3 a 0.50005,0.50005 0 0 0 -0.5,-0.5 l -0.46875,0 0,-1.0313 0.5,0 a 0.50005,0.50005 0 0 0 0.5,-0.5 l 0,-3.0625 a 0.50005,0.50005 0 0 0 -0.5,-0.5 l -2.96875,0 a 0.50005,0.50005 0 0 0 -0.09375,0 z m 0.59375,1 1.96875,0 0,2.0625 -0.5,0 a 0.50005,0.50005 0 0 0 -0.5,0.5 l 0,2.0313 a 0.50005,0.50005 0 0 0 0.5,0.5 l 0.46875,0 0,2 -0.46875,0 a 0.50005,0.50005 0 0 0 -0.5,0.5 l 0,1.9374 a 0.50005,0.50005 0 0 0 0.5,0.5 l 0.5,0 0,1.9688 -2,0 0,-0.5 a 0.50005,0.50005 0 0 0 -0.5,-0.5 l -2,0 a 0.50005,0.50005 0 0 0 -0.5,0.5 l 0,0.5 -1.9375,0 0,-0.5 a 0.50005,0.50005 0 0 0 -0.5,-0.5 l -2.03125,0 a 0.50005,0.50005 0 0 0 -0.5,0.5 l 0,0.5312 -2.03125,-0.031 0,-1.9688 0.53125,0 a 0.50005,0.50005 0 0 0 0.5,-0.5 l -0.03125,-2 a 0.50005,0.50005 0 0 0 -0.5,-0.5 l -0.46875,0 0,-1.9687 0.5625,0 a 0.50005,0.50005 0 0 0 0.5,-0.5 l 0,-2.0625 a 0.50005,0.50005 0 0 0 -0.5,-0.5 l -0.53125,0 0,-1.9688 1.9375,0 0,0.5 a 0.50005,0.50005 0 0 0 0.5,0.5 l 2,0 a 0.50005,0.50005 0 0 0 0.5,-0.5 l 0,-0.5 2,0 0,0.5 a 0.50005,0.50005 0 0 0 0.5,0.5 l 2.03125,0 a 0.50005,0.50005 0 0 0 0.5,-0.5 l 0,-0.5312 z"
       id="path11531-7"
       inkscape:connector-curvature="0" />
    <path
       style="font-size:medium;font-style:normal;font-variant:normal;font-weight:normal;font-stretch:normal;text-indent:0;text-align:start;text-decoration:none;line-height:normal;letter-spacing:normal;word-spacing:normal;text-transform:none;direction:ltr;block-progression:tb;writing-mode:lr-tb;text-anchor:start;baseline-shift:baseline;opacity:0.5;color:#000000;fill:#000000;fill-opacity:1;fill-rule:nonzero;stroke:none;stroke-width:1;marker:none;visibility:visible;display:inline;overflow:visible;enable-background:accumulate;font-family:Sans;-inkscape-font-specification:Sans"
       d="m 27.527375,1036.3622 c -2.481275,0 -4.53125,2.014 -4.53125,4.5 0,1.454 0.73715,2.68 1.8125,3.5 l -0.875,0 c -1.638977,0 -2.948017,1.3836 -2.9375,3.0313 l 0,2.9687 13.000001,0 0,-2.9687 c -7.16e-4,-1.6511 -1.329781,-3.0313 -2.96875,-3.0313 l -0.875001,0 c 1.075047,-0.8209 1.843751,-2.042 1.843751,-3.5 0,-2.4812 -1.987476,-4.5 -4.468751,-4.5 z m 0,1 c 1.935829,0 3.468751,1.5517 3.468751,3.5 0,1.3062 -0.69942,2.4271 -1.750001,3.0313 l -0.28125,0.1562 0.03125,1.3125 2.000608,-0.019 c 1.103688,-0.01 1.965317,0.9167 1.999393,2.0498 l 0,1.9687 -11.000001,0 0,-1.9687 c -0.0071,-1.1187 0.851703,-2.0313 1.9375,-2.0313 l 2.09375,0 -0.03125,-1.2812 -0.25,-0.1563 c -1.084752,-0.5886 -1.75,-1.711 -1.75,-3.0625 0,-1.9436 1.595421,-3.5 3.53125,-3.5 z"
       inkscape:connector-curvature="0"
       sodipodi:nodetypes="sscsccccscsssscccsccccccccss"
       id="path140" />
    <path
       style="fill:#ffffff;fill-opacity:1;stroke:none"
       d="m 27.496125,1037.331 c -1.937951,0 -3.5,1.567 -3.5,3.5 0,1.4006 0.80842,2.628 2,3.1875 l 0,1.3437 -2,0 c -1.198091,0 -1.990065,0.7938 -2,1.9688 l 0,2.0312 11.000001,0 0,-2 c 0,-1.1778 -0.726257,-2 -2,-2 l -2.000001,0 0,-1.375 c 1.174347,-0.5659 2.000001,-1.7682 2.000001,-3.1562 0,-1.933 -1.56205,-3.5 -3.500001,-3.5 z"
       id="path4250"
       inkscape:connector-curvature="0" />
    <path
       style="font-size:medium;font-style:normal;font-variant:normal;font-weight:normal;font-stretch:normal;text-indent:0;text-align:start;text-decoration:none;line-height:normal;letter-spacing:normal;word-spacing:normal;text-transform:none;direction:ltr;block-progression:tb;writing-mode:lr-tb;text-anchor:start;baseline-shift:baseline;color:#000000;fill:#000000;fill-opacity:1;stroke:none;stroke-width:1;marker:none;visibility:visible;display:inline;overflow:visible;enable-background:accumulate;font-family:Sans;-inkscape-font-specification:Sans;opacity:0.5"
       d="m 120.96875,1037.4062 c -1.65824,0 -3.03125,1.3595 -3.03125,3.0313 0,1.3341 0.95883,2.3095 2.15625,2.7187 -0.2175,0.4943 -0.52704,0.9276 -1.03125,1.5626 l -0.96875,1.25 1.5,-0.4376 c 1.25695,-0.3683 2.36566,-0.9625 3.15625,-1.8124 0.79059,-0.85 1.25,-1.9671 1.25,-3.2813 0,-1.6718 -1.373,-3.0312 -3.03125,-3.0313 z m 0,1 c 1.12767,0 2.03125,0.8975 2.03125,2.0313 0,1.0845 -0.3672,1.9134 -1,2.5937 -0.249,0.2677 -0.72797,0.3781 -1.0625,0.5938 0.0928,-0.1892 0.28562,-0.3107 0.34375,-0.5312 l 0.15625,-0.5626 -0.625,-0.062 c -1.04197,-0.08 -1.875,-0.9514 -1.875,-2.0313 0,-1.1338 0.90359,-2.0312 2.03125,-2.0313 z"
       id="path12684-2-7"
       inkscape:connector-curvature="0" />
    <path
       style="font-size:medium;font-style:normal;font-variant:normal;font-weight:normal;font-stretch:normal;text-indent:0;text-align:start;text-decoration:none;line-height:normal;letter-spacing:normal;word-spacing:normal;text-transform:none;direction:ltr;block-progression:tb;writing-mode:lr-tb;text-anchor:start;baseline-shift:baseline;color:#000000;fill:#000000;fill-opacity:1;stroke:none;stroke-width:1;marker:none;visibility:visible;display:inline;overflow:visible;enable-background:accumulate;font-family:Sans;-inkscape-font-specification:Sans;opacity:0.5"
       d="m 113.9375,1037.4062 c -1.65824,0 -3,1.3595 -3,3.0313 0,1.3308 0.93222,2.3068 2.125,2.7187 -0.2175,0.4943 -0.52704,0.9276 -1.03125,1.5626 l -0.96875,1.25 1.5,-0.4376 c 1.25695,-0.3683 2.36566,-0.9625 3.15625,-1.8124 0.79059,-0.85 1.25,-1.9671 1.25,-3.2813 0,-1.6718 -1.373,-3.0312 -3.03125,-3.0313 z m 0,1 c 1.12767,0 2.03125,0.8975 2.03125,2.0313 0,1.0845 -0.33595,1.9134 -0.96875,2.5937 -0.25547,0.2747 -0.7484,0.4051 -1.09375,0.625 0.098,-0.196 0.2832,-0.3327 0.34375,-0.5624 l 0.15625,-0.5626 -0.59375,-0.062 c -1.04197,-0.08 -1.875,-0.9514 -1.875,-2.0313 0,-1.1338 0.87234,-2.0312 2,-2.0313 z"
       id="path12684-2-9-7"
       inkscape:connector-curvature="0" />
    <path
       style="font-size:medium;font-style:normal;font-variant:normal;font-weight:normal;font-stretch:normal;text-indent:0;text-align:start;text-decoration:none;line-height:normal;letter-spacing:normal;word-spacing:normal;text-transform:none;direction:ltr;block-progression:tb;writing-mode:lr-tb;text-anchor:start;baseline-shift:baseline;color:#000000;fill:#ffffff;fill-opacity:1;stroke:none;stroke-width:1;marker:none;visibility:visible;display:inline;overflow:visible;enable-background:accumulate;font-family:Sans;-inkscape-font-specification:Sans"
       d="m 57.96875,1036.375 0,9.9062 3.96875,4.3126 4.03125,-3.8126 0,-8.375 -1,0 0,7.9688 -3,2.7812 -3,-3.25 0,-8.5312 4.03125,0 0,6.8125 -1.0625,1.1875 -0.9375,-1.125 0,-5.875 -1,0 0,6.2188 1.90625,2.3437 2.09375,-2.375 0,-8.1875 z"
       id="path12262-8-4"
       inkscape:connector-curvature="0"
       sodipodi:nodetypes="ccccccccccccccccccccc" />
    <path
       style="font-size:medium;font-style:normal;font-variant:normal;font-weight:normal;font-stretch:normal;text-indent:0;text-align:start;text-decoration:none;line-height:normal;letter-spacing:normal;word-spacing:normal;text-transform:none;direction:ltr;block-progression:tb;writing-mode:lr-tb;text-anchor:start;baseline-shift:baseline;color:#000000;fill:#000000;fill-opacity:1;fill-rule:nonzero;stroke:none;stroke-width:2;marker:none;visibility:visible;display:inline;overflow:visible;enable-background:accumulate;font-family:Bitstream Charter;-inkscape-font-specification:Bitstream Charter;opacity:0.5"
       d="m 51.78125,1037.3622 c -0.117522,0.026 -0.197276,0.096 -0.3125,0.125 -4.697455,1.181 -7.467904,4.6542 -8.96875,7.5 -0.35846,-0.5117 -0.668613,-1.067 -1.09375,-1.5312 l -0.6875,-0.7188 -3.1875,2.9063 0.78125,0.75 c 1.085664,1.0239 1.8251,2.2731 2.6875,4.3437 l 0.25,0.625 3.53125,-0.031 0.1875,-0.75 c 1.2841,-5.1499 3.883626,-9.1239 7.5625,-11.4063 l -0.75,-1.8125 z m 0.21875,1 c -3.941443,2.4453 -6.668701,6.6297 -8,11.9688 l -2.09375,0.031 c -0.883971,-2.1224 -1.680877,-3.5319 -2.90625,-4.6875 l 1.65625,-1.5312 c 0.755536,0.8251 1.405015,1.7635 2,2.7812 1.192283,-2.8256 4.007238,-7.3797 9.34375,-8.5625 z"
       id="path11625-0-6"
       inkscape:connector-curvature="0" />
    <path
       style="font-size:medium;font-style:normal;font-variant:normal;font-weight:normal;font-stretch:normal;text-indent:0;text-align:start;text-decoration:none;line-height:normal;letter-spacing:normal;word-spacing:normal;text-transform:none;direction:ltr;block-progression:tb;writing-mode:lr-tb;text-anchor:start;baseline-shift:baseline;opacity:0.5;color:#000000;fill:#000000;fill-opacity:1;fill-rule:nonzero;stroke:none;stroke-width:1;marker:none;visibility:visible;display:inline;overflow:visible;enable-background:accumulate;font-family:Sans;-inkscape-font-specification:Sans"
       d="m 91.988477,1036.3577 0,14 13.968753,0 0,-14 z m 1.000002,1 1,0 0,5.9688 9.968751,0 0,-5.9688 1,0 0,12 -2.96875,0 0,-5 -8.031251,0 0,5 -0.96875,0 z m 2,0 7.968751,0 0,4.9688 -7.968751,0 z m -0.0312,8 5.992191,0 0,4 -5.992191,0 z m 1,1 0,2 1,0 0,-2 z"
       id="rect8970"
       inkscape:connector-curvature="0"
       sodipodi:nodetypes="ccccccccccccccccccccccccccccccccc" />
    <path
       style="fill:#ffffff;fill-opacity:1;stroke:none"
       d="m 92.988479,1037.3577 0,12 0.96875,0 0,-5 8.000001,0 0,5 3,0 0,-12 -1,0 0,6 -9.968751,0 0,-6 -1,0 z m 2.03125,0 0,5 7.906251,0 0,-5 -7.906251,0 z"
       id="rect4253"
       inkscape:connector-curvature="0" />
    <path
       style="fill:#ffffff;fill-opacity:1;stroke:none"
       d="m 94.957229,1045.3577 0,4 5.968751,0 0,-4 -5.968751,0 z m 1,1 1,0 0,2 -1,0 0,-2 z"
       id="rect4295"
       inkscape:connector-curvature="0" />
    <path
       style="font-size:medium;font-style:normal;font-variant:normal;font-weight:normal;font-stretch:normal;text-indent:0;text-align:start;text-decoration:none;line-height:normal;letter-spacing:normal;word-spacing:normal;text-transform:none;direction:ltr;block-progression:tb;writing-mode:lr-tb;text-anchor:start;baseline-shift:baseline;color:#000000;fill:#000000;fill-opacity:1;stroke:none;stroke-width:1;marker:none;visibility:visible;display:inline;overflow:visible;enable-background:accumulate;font-family:Sans;-inkscape-font-specification:Sans;opacity:0.5"
       d="M 147.0625,2 C 146.4796,2 146,2.4762 146,3.0625 l 0,7.84375 C 146,11.49255 146.47971,12 147.0625,12 l 4.9375,0 0,2.90625 C 152,15.49255 152.47971,16 153.0625,16 l 5.84375,0 c 0.58278,0 1.0625,-0.50745 1.0625,-1.09375 l 0,-6.4375 L 157.6875,6 l -3.71875,0 0,-1.53125 L 151.6875,2 z M 147,3 c 0.009,-0.01 0.0366,0 0.0625,0 l 2.90625,0 0,3 3,0 0,0.03125 C 152.43326,6.08325 152,6.5108 152,7.0625 L 152,11 147.0625,11 C 147.0105,11 147,10.95225 147,10.90625 L 147,3.0625 C 147,3.0395 146.991,3.009 147,3 z m 4,0 0.3125,0 1.65625,1.875 0,0.125 L 151,5 z m 4.99609,4 0,3 2.97261,0 0,4.90625 c 0,0.045 -0.0106,0.09375 -0.0625,0.09375 l -5.84375,0 C 153.0105,15 153,14.95225 153,14.90625 l 0,-2.9375 0.008,-4.9609375 z M 157,7 l 0.3125,0 1.65625,1.875 0,0.125 L 157,9 z"
       id="rect3195-3-4"
       inkscape:connector-curvature="0"
       sodipodi:nodetypes="sssscsssscccccscsccccscsssccccccccccssssccccccccc"
       transform="translate(0,1034.3622)" />
    <path
       style="font-size:medium;font-style:normal;font-variant:normal;font-weight:normal;font-stretch:normal;text-indent:0;text-align:start;text-decoration:none;line-height:normal;letter-spacing:normal;word-spacing:normal;text-transform:none;direction:ltr;block-progression:tb;writing-mode:lr-tb;text-anchor:start;baseline-shift:baseline;color:#000000;fill:#000000;fill-opacity:1;stroke:none;stroke-width:1;marker:none;visibility:visible;display:inline;overflow:visible;enable-background:accumulate;font-family:Sans;-inkscape-font-specification:Sans;opacity:0.5"
       d="M 5.40625,1047.4062 A 0.50005,0.50005 0 0 1 5,1046.9062 l 0,-7 a 0.50005,0.50005 0 0 1 0.5,-0.5 l 7,0 a 0.50005,0.50005 0 0 1 0.5,0.5 l 0,7 a 0.50005,0.50005 0 0 1 -0.5,0.5 l -7,0 a 0.50005,0.50005 0 0 1 -0.09375,0 z m 0.59375,-1 6,0 0,-6 -6,0 0,6 z"
       id="rect5427-1-7"
       inkscape:connector-curvature="0" />
    <rect
       style="opacity:1;fill:#ffffff;fill-opacity:1;stroke:none"
       id="rect6697"
       width="5.9883108"
       height="6.0546017"
       x="5.9993587"
       y="1040.3524" />
    <path
       style="font-size:medium;font-style:normal;font-variant:normal;font-weight:normal;font-stretch:normal;text-indent:0;text-align:start;text-decoration:none;line-height:normal;letter-spacing:normal;word-spacing:normal;text-transform:none;direction:ltr;block-progression:tb;writing-mode:lr-tb;text-anchor:start;baseline-shift:baseline;color:#000000;fill:#000000;fill-opacity:1;stroke:none;stroke-width:1;marker:none;visibility:visible;display:inline;overflow:visible;enable-background:accumulate;font-family:Sans;-inkscape-font-specification:Sans;opacity:0.5"
       d="m 139,1036.375 -0.875,0.9688 -3.125,3.5 -3.09375,-3.4688 -0.875,-0.9688 0,1.3126 c 0,2.1449 1.05635,4.0412 2,5.4062 l -2,2.3125 c -0.73991,-6e-4 -1.48469,0.2688 -2.09375,0.875 -0.5134,0.5111 -0.84612,1.1256 -0.9375,1.75 -0.0914,0.6244 0.0729,1.2937 0.53125,1.75 0.46019,0.458 1.12077,0.591 1.75,0.5 0.62923,-0.091 1.23549,-0.3941 1.75,-0.9063 0.68495,-0.6818 0.95136,-1.5593 0.84375,-2.375 0.69158,-0.5203 1.55336,-1.1926 2.125,-1.6874 0.53387,0.4569 1.3768,1.0846 2.15625,1.6562 -0.12265,0.8276 0.14966,1.7154 0.84375,2.4062 0.51243,0.5101 1.12688,0.8148 1.75,0.9063 0.62312,0.091 1.26136,-0.045 1.71875,-0.5 0.45836,-0.4563 0.62263,-1.1256 0.53125,-1.75 -0.0914,-0.6244 -0.4241,-1.2389 -0.9375,-1.75 -0.6065,-0.6037 -1.35557,-0.8772 -2.09375,-0.875 l -2,-2.2813 c 0.95319,-1.3781 2.03125,-3.3099 2.03125,-5.4687 l 0,-1.3125 z m -1.40625,3.0625 c -0.38482,1.3209 -0.97932,2.5764 -1.625,3.4687 l -0.21875,0.3126 0.25,0.3124 2.3125,2.6876 0.1875,0.2187 0.28125,-0.062 c 0.44526,-0.074 1.07536,0.1402 1.59375,0.6562 0.37104,0.3694 0.56914,0.8059 0.625,1.1876 0.0559,0.3816 -0.0162,0.6733 -0.21875,0.875 -0.20351,0.2025 -0.49383,0.3059 -0.875,0.25 -0.38117,-0.056 -0.84674,-0.286 -1.21875,-0.6563 -0.59501,-0.5923 -0.75873,-1.3466 -0.59375,-1.7813 l 0.125,-0.3437 -0.3125,-0.2187 c -0.93006,-0.6805 -2.23431,-1.6879 -2.5625,-2 L 135,1044.0312 l -0.34375,0.3126 c -0.38174,0.3621 -1.77707,1.4426 -2.5625,2.0312 l -0.28125,0.2188 0.125,0.3437 c 0.15502,0.4403 -0.01,1.1689 -0.59375,1.75 -0.36993,0.3682 -0.82807,0.5997 -1.21875,0.6563 -0.39068,0.056 -0.70554,-0.05 -0.90625,-0.25 -0.20254,-0.2017 -0.27461,-0.4934 -0.21875,-0.875 0.0559,-0.3817 0.25396,-0.8182 0.625,-1.1876 0.50337,-0.501 1.1812,-0.7219 1.625,-0.6562 l 0.25,0.062 0.1875,-0.2187 2.34375,-2.7188 0.25,-0.3125 -0.21875,-0.3125 c -0.64213,-0.8909 -1.23848,-2.1118 -1.625,-3.4062 l 2.1875,2.4374 0.375,0.4376 0.375,-0.4376 2.21875,-2.4687 z"
       id="path6721-0"
       inkscape:connector-curvature="0" />
    <path
       sodipodi:type="arc"
       style="opacity:0.5;fill:#000000;fill-opacity:1;stroke:none"
       id="path6898"
       sodipodi:cx="130.58273"
       sodipodi:cy="13.602679"
       sodipodi:rx="0.36460194"
       sodipodi:ry="0.50823301"
       d="m 130.94734,13.602679 c 0,0.28069 -0.16324,0.508233 -0.36461,0.508233 -0.20136,0 -0.3646,-0.227543 -0.3646,-0.508233 0,-0.280689 0.16324,-0.508233 0.3646,-0.508233 0.20137,0 0.36461,0.227544 0.36461,0.508233 z"
       transform="matrix(1.3712121,0,0,0.98369565,-48.54847,1034.4818)" />
    <path
       sodipodi:type="arc"
       style="opacity:0.5;fill:#000000;fill-opacity:1;stroke:none"
       id="path6898-9"
       sodipodi:cx="130.58273"
       sodipodi:cy="13.602679"
       sodipodi:rx="0.36460194"
       sodipodi:ry="0.50823301"
       d="m 130.94734,13.602679 c 0,0.28069 -0.16324,0.508233 -0.36461,0.508233 -0.20136,0 -0.3646,-0.227543 -0.3646,-0.508233 0,-0.280689 0.16324,-0.508233 0.3646,-0.508233 0.20137,0 0.36461,0.227544 0.36461,0.508233 z"
       transform="matrix(1.3712121,0,0,0.98369565,-39.55762,1034.4818)" />
  </g>
</svg>
