<?xml version="1.0" encoding="UTF-8" standalone="no"?>
<!-- Created with Inkscape (http://www.inkscape.org/) -->

<svg
   xmlns:dc="http://purl.org/dc/elements/1.1/"
   xmlns:cc="http://creativecommons.org/ns#"
   xmlns:rdf="http://www.w3.org/1999/02/22-rdf-syntax-ns#"
   xmlns:svg="http://www.w3.org/2000/svg"
   xmlns="http://www.w3.org/2000/svg"
   xmlns:xlink="http://www.w3.org/1999/xlink"
   xmlns:sodipodi="http://sodipodi.sourceforge.net/DTD/sodipodi-0.dtd"
   xmlns:inkscape="http://www.inkscape.org/namespaces/inkscape"
   width="81"
   height="75"
   id="svg2"
   version="1.1"
   inkscape:version="0.48.1 r9760"
   sodipodi:docname="mode-switch-icons-aero.svg"
   inkscape:export-filename="/home/andreasn/development/thunderbird-icons/qute/mode-switch-icons-aero.png"
   inkscape:export-xdpi="90"
   inkscape:export-ydpi="90">
  <defs
     id="defs4">
    <linearGradient
       id="linearGradient4178">
      <stop
         style="stop-color:#636f76;stop-opacity:1"
         offset="0"
         id="stop4180" />
      <stop
         style="stop-color:#4c565e;stop-opacity:1"
         offset="1"
         id="stop4182" />
    </linearGradient>
    <linearGradient
       inkscape:collect="always"
       id="linearGradient5272">
      <stop
         style="stop-color:#000000;stop-opacity:1;"
         offset="0"
         id="stop5274" />
      <stop
         style="stop-color:#414c55;stop-opacity:1"
         offset="1"
         id="stop5276" />
    </linearGradient>
    <linearGradient
       id="linearGradient4507">
      <stop
         id="stop4509"
         offset="0"
         style="stop-color:#707d85;stop-opacity:1;" />
      <stop
         id="stop4511"
         offset="1"
         style="stop-color:#4c565e;stop-opacity:1" />
    </linearGradient>
    <radialGradient
       inkscape:collect="always"
       xlink:href="#linearGradient4507"
       id="radialGradient12473"
       cx="92"
       cy="8.5"
       fx="92"
       fy="8.5"
       r="6"
       gradientTransform="matrix(1,0,0,1.0833333,-20,-81.70833)"
       gradientUnits="userSpaceOnUse" />
    <linearGradient
       inkscape:collect="always"
       xlink:href="#linearGradient5272"
       id="linearGradient12477"
       x1="111.5"
       y1="-58"
       x2="111.5"
       y2="-49"
       gradientUnits="userSpaceOnUse"
       gradientTransform="translate(-20,-20)" />
    <linearGradient
       inkscape:collect="always"
       xlink:href="#linearGradient5272"
       id="linearGradient4119"
       x1="71.382172"
       y1="-57.624245"
       x2="71.382172"
       y2="-48.320042"
       gradientUnits="userSpaceOnUse"
       gradientTransform="translate(40,-20)" />
    <radialGradient
       inkscape:collect="always"
       xlink:href="#linearGradient4507"
       id="radialGradient4121"
       cx="71.911613"
       cy="6.7675886"
       fx="71.911613"
       fy="6.7675886"
       r="7"
       gradientTransform="matrix(1.9218057,4.2165049e-8,-3.0992488e-8,1.4125808,-66.288534,-81.915924)"
       gradientUnits="userSpaceOnUse" />
    <linearGradient
       inkscape:collect="always"
       xlink:href="#linearGradient5272"
       id="linearGradient4160"
       x1="71.046875"
       y1="-58"
       x2="71.046875"
       y2="-49"
       gradientUnits="userSpaceOnUse" />
    <linearGradient
       inkscape:collect="always"
       xlink:href="#linearGradient5272"
       id="linearGradient4166"
       x1="72.404015"
       y1="-57"
       x2="72.404015"
       y2="-55"
       gradientUnits="userSpaceOnUse" />
    <linearGradient
       inkscape:collect="always"
       xlink:href="#linearGradient5272"
       id="linearGradient4192"
       x1="71.984138"
       y1="5.5383244"
       x2="71.984138"
       y2="11.755313"
       gradientUnits="userSpaceOnUse" />
    <linearGradient
       inkscape:collect="always"
       xlink:href="#linearGradient5272"
       id="linearGradient4335"
       x1="35"
       y1="1"
       x2="34.875"
       y2="9.5"
       gradientUnits="userSpaceOnUse"
       gradientTransform="translate(20,-59)" />
    <radialGradient
       inkscape:collect="always"
       xlink:href="#linearGradient4507"
       id="radialGradient4337"
       cx="35"
       cy="8"
       fx="35"
       fy="8"
       r="8"
       gradientUnits="userSpaceOnUse"
       gradientTransform="matrix(1.9560813,0,0,1.5,-13.462845,-63)" />
    <radialGradient
       inkscape:collect="always"
       xlink:href="#linearGradient4178"
       id="radialGradient4341"
       gradientUnits="userSpaceOnUse"
       gradientTransform="matrix(1.715884,-1.4241998e-7,1.3610668e-7,1.639821,-85.872508,91.340966)"
       cx="92.015625"
       cy="-50.546875"
       fx="92.015625"
       fy="-50.546875"
       r="6.984375" />
    <radialGradient
       inkscape:collect="always"
       xlink:href="#linearGradient4507-1"
       id="radialGradient4337-8"
       cx="35"
       cy="8"
       fx="35"
       fy="8"
       r="8"
       gradientUnits="userSpaceOnUse"
       gradientTransform="matrix(1.9560813,0,0,1.5,-33.462845,-4)" />
    <linearGradient
       id="linearGradient4507-1">
      <stop
         id="stop4509-1"
         offset="0"
         style="stop-color:#707d85;stop-opacity:1;" />
      <stop
         id="stop4511-7"
         offset="1"
         style="stop-color:#4c565e;stop-opacity:1" />
    </linearGradient>
    <filter
       inkscape:collect="always"
       id="filter4380"
       x="-0.12"
       width="1.24"
       y="-0.12"
       height="1.24">
      <feGaussianBlur
         inkscape:collect="always"
         stdDeviation="0.8"
         id="feGaussianBlur4382" />
    </filter>
    <radialGradient
       inkscape:collect="always"
       xlink:href="#linearGradient4178-4"
       id="radialGradient4341-6"
       gradientUnits="userSpaceOnUse"
       gradientTransform="matrix(1.715884,-1.4241998e-7,1.3610668e-7,1.639821,-85.872508,91.340966)"
       cx="92.015625"
       cy="-50.546875"
       fx="92.015625"
       fy="-50.546875"
       r="6.984375" />
    <linearGradient
       id="linearGradient4178-4">
      <stop
         style="stop-color:#636f76;stop-opacity:1"
         offset="0"
         id="stop4180-1" />
      <stop
         style="stop-color:#4c565e;stop-opacity:1"
         offset="1"
         id="stop4182-2" />
    </linearGradient>
    <filter
       inkscape:collect="always"
       id="filter4430"
       x="-0.12402685"
       width="1.2480537"
       y="-0.11622642"
       height="1.2324528">
      <feGaussianBlur
         inkscape:collect="always"
         stdDeviation="0.721875"
         id="feGaussianBlur4432" />
    </filter>
  </defs>
  <sodipodi:namedview
     id="base"
     pagecolor="#ffffff"
     bordercolor="#666666"
     borderopacity="1.0"
     inkscape:pageopacity="0.0"
     inkscape:pageshadow="2"
     inkscape:zoom="2"
     inkscape:cx="206.03952"
     inkscape:cy="18.088995"
     inkscape:current-layer="layer1"
     showgrid="false"
     inkscape:grid-bbox="true"
     inkscape:document-units="px"
     inkscape:snap-nodes="false"
     inkscape:window-width="1366"
     inkscape:window-height="711"
     inkscape:window-x="0"
     inkscape:window-y="26"
     inkscape:window-maximized="1"
     showguides="true"
     inkscape:guide-bbox="true">
    <inkscape:grid
       type="xygrid"
       id="grid10298"
       empspacing="5"
       visible="true"
       enabled="true"
       snapvisiblegridlinesonly="true" />
  </sodipodi:namedview>
  <metadata
     id="metadata7">
    <rdf:RDF>
      <cc:Work
         rdf:about="">
        <dc:format>image/svg+xml</dc:format>
        <dc:type
           rdf:resource="http://purl.org/dc/dcmitype/StillImage" />
        <dc:title />
      </cc:Work>
    </rdf:RDF>
  </metadata>
  <g
     id="layer1"
     inkscape:label="Layer 1"
     inkscape:groupmode="layer"
     transform="translate(0,59)">
    <path
       inkscape:connector-curvature="0"
       style="color:#000000;fill:#ffffff;fill-opacity:1;fill-rule:nonzero;stroke:none;stroke-width:1;marker:none;visibility:visible;display:inline;overflow:visible;enable-background:accumulate;filter:url(#filter4430);opacity:0.5"
       d="m 69,-58 0,3 6,0 0,-3 -6,0 z m -2.9375,1 c -0.562656,0 -1.03125,0.437344 -1.03125,1 l 0,11.875 c 0,0.562656 0.468594,1.03125 1.03125,1.03125 l 11.9375,0 c 0.562656,0 1,-0.468594 1,-1.03125 L 79,-56 c 0,-0.562656 -0.437344,-1 -1,-1 l -0.375,0 -0.78125,0 -0.84375,0 0,2 1,0 0,10.03125 -10,0 L 67,-55 l 1,0 0,-2 -0.8125,0 -1.125,0 z m 8.21875,4.0625 -3.0625,3.4375 -1.5625,-1.59375 -1.4375,1.375 3.0625,3.15625 4.5,-5.0625 -1.5,-1.3125 z"
       id="rect4123-3" />
    <path
       style="opacity:1;color:#000000;fill:url(#radialGradient4341);fill-opacity:1;fill-rule:nonzero;stroke:none;stroke-width:1;marker:none;visibility:visible;display:inline;overflow:visible;enable-background:accumulate"
       d="M 69 1 L 69 4 L 75 4 L 75 1 L 69 1 z M 66.0625 2 C 65.499844 2 65.03125 2.437344 65.03125 3 L 65.03125 14.875 C 65.03125 15.437656 65.499844 15.90625 66.0625 15.90625 L 78 15.90625 C 78.562656 15.90625 79 15.437656 79 14.875 L 79 3 C 79 2.437344 78.562656 2 78 2 L 77.625 2 L 76.84375 2 L 76 2 L 76 4 L 77 4 L 77 14.03125 L 67 14.03125 L 67 4 L 68 4 L 68 2 L 67.1875 2 L 66.0625 2 z M 74.28125 6.0625 L 71.21875 9.5 L 69.65625 7.90625 L 68.21875 9.28125 L 71.28125 12.4375 L 75.78125 7.375 L 74.28125 6.0625 z "
       id="rect4123"
       transform="translate(0,-59)" />
    <path
       style="fill:none;stroke:url(#linearGradient4160);stroke-width:1;stroke-linecap:butt;stroke-linejoin:round;stroke-miterlimit:4;stroke-opacity:1;stroke-dasharray:none"
       d="m 68.037791,-56.531248 -2.037791,0 c -0.231769,0 -0.484375,0.275077 -0.484375,0.546875 l 0,12.03125 c 0,0.246108 0.247288,0.453125 0.515625,0.453125 l 11.953125,0 c 0.284492,0 0.546875,-0.262755 0.546875,-0.531252 l 0,-11.9375 c 0,-0.240199 -0.222467,-0.530792 -0.515625,-0.530792 l -1.944266,0"
       id="path4156"
       inkscape:connector-curvature="0"
       sodipodi:nodetypes="cccccccccc" />
    <rect
       style="opacity:0.46502057000000002;color:#000000;fill:none;stroke:url(#linearGradient4166);stroke-width:0.99999994000000003;stroke-opacity:1;marker:none;visibility:visible;display:inline;overflow:visible;enable-background:accumulate"
       id="rect4158"
       width="5.015625"
       height="2.015625"
       x="69.5"
       y="-57.5" />
    <path
       style="opacity:1;fill:none;stroke:url(#linearGradient4192);stroke-width:1px;stroke-linecap:butt;stroke-linejoin:miter;stroke-opacity:1"
       d="M 69.59375,8.5781248 71.234375,10.25 74.34375,6.7343748 l 1.46875,1.359375 -4.515625,5.0781252 -3.125,-3.2343752 z"
       id="path4190"
       inkscape:connector-curvature="0"
       transform="translate(0,-59)"
       sodipodi:nodetypes="ccccccc" />
    <path
       inkscape:connector-curvature="0"
       style="font-size:medium;font-style:normal;font-variant:normal;font-weight:normal;font-stretch:normal;text-indent:0;text-align:start;text-decoration:none;line-height:normal;letter-spacing:normal;word-spacing:normal;text-transform:none;direction:ltr;block-progression:tb;writing-mode:lr-tb;text-anchor:start;baseline-shift:baseline;opacity:0.6;color:#000000;fill:#ffffff;fill-opacity:1;stroke:none;stroke-width:2;marker:none;visibility:visible;display:inline;overflow:visible;filter:url(#filter4380);enable-background:accumulate;font-family:Sans;-inkscape-font-specification:Sans"
       d="m 51,-59 0,3 1,0 0,-3 -1,0 z m 7,0 0,3.03125 1,0 0,-3.03125 -1,0 z m -9.5625,2 C 47.658422,-57 47,-56.341578 47,-55.5625 l 0,11.125 C 47,-43.658422 47.658422,-43 48.4375,-43 l 13.125,0 C 62.341578,-43 63,-43.658422 63,-44.4375 l 0,-11.09375 c 0,-0.779078 -0.658422,-1.4375 -1.4375,-1.4375 l -1.5625,0 0,1.96875 -3,0 0,-1.96875 -4,0 0,1.96875 -3,0 0,-2 -1.5625,0 z m 0.5625,3 12,0 0,9 -12,0 0,-9 z m 3.03125,1 L 52,-50.96875 55.71875,-51 l -2.15625,5 1.625,0 2.8125,-7 -5.96875,0 z"
       id="rect4194-5-5" />
    <path
       style="font-size:medium;font-style:normal;font-variant:normal;font-weight:normal;font-stretch:normal;text-indent:0;text-align:start;text-decoration:none;line-height:normal;letter-spacing:normal;word-spacing:normal;text-transform:none;direction:ltr;block-progression:tb;writing-mode:lr-tb;text-anchor:start;baseline-shift:baseline;color:#000000;fill:url(#radialGradient4337);fill-opacity:1;stroke:none;stroke-width:2;marker:none;visibility:visible;display:inline;overflow:visible;enable-background:accumulate;font-family:Sans;-inkscape-font-specification:Sans"
       d="m 51,-59 0,3 1,0 0,-3 -1,0 z m 7,0 0,3.03125 1,0 0,-3.03125 -1,0 z m -9.5625,2 C 47.658422,-57 47,-56.341578 47,-55.5625 l 0,11.125 C 47,-43.658422 47.658422,-43 48.4375,-43 l 13.125,0 C 62.341578,-43 63,-43.658422 63,-44.4375 l 0,-11.09375 c 0,-0.779078 -0.658422,-1.4375 -1.4375,-1.4375 l -1.5625,0 0,1.96875 -3,0 0,-1.96875 -4,0 0,1.96875 -3,0 0,-2 -1.5625,0 z m 0.5625,3 12,0 0,9 -12,0 0,-9 z m 3.03125,1 L 52,-50.96875 55.71875,-51 l -2.15625,5 1.625,0 2.8125,-7 -5.96875,0 z"
       id="rect4194-5"
       inkscape:connector-curvature="0" />
    <path
       style="font-size:medium;font-style:normal;font-variant:normal;font-weight:normal;font-stretch:normal;text-indent:0;text-align:start;text-decoration:none;line-height:normal;letter-spacing:normal;word-spacing:normal;text-transform:none;direction:ltr;block-progression:tb;writing-mode:lr-tb;text-anchor:start;baseline-shift:baseline;color:#000000;fill:url(#linearGradient4335);fill-opacity:1;stroke:none;stroke-width:0.99999994;marker:none;visibility:visible;display:inline;overflow:visible;enable-background:accumulate;font-family:Sans;-inkscape-font-specification:Sans"
       d="m 48.4375,-57 c -0.406018,0 -0.804742,0.183813 -1.0625,0.46875 -0.257758,0.284937 -0.375,0.655187 -0.375,1.0625 l 0,10.90625 C 47,-43.730051 47.62215,-43 48.4375,-43 l 13.125,0 c 0.359837,0 0.725349,-0.115868 1,-0.375 C 62.837151,-43.634132 63,-44.03505 63,-44.46875 L 63,-55.5 C 63,-56.303505 62.387471,-57 61.59375,-57 L 60,-57 l 0,1 1.59375,0 C 61.784779,-56 62,-55.806245 62,-55.5 l 0,11.03125 c 0,0.1993 -0.05399,0.276757 -0.125,0.34375 -0.07101,0.06699 -0.179962,0.125 -0.3125,0.125 l -13.125,0 C 48.21286,-44 48,-44.222699 48,-44.5625 l 0,-10.90625 c 0,-0.195862 0.05273,-0.326356 0.125,-0.40625 0.07227,-0.07989 0.163643,-0.125 0.3125,-0.125 l 1.5625,0 0,-1 -1.5625,0 z m 4.5625,0 0,1 4,0 0,-1 -4,0 z"
       id="rect4194"
       inkscape:connector-curvature="0" />
    <rect
       style="color:#000000;fill:#65676d;fill-opacity:1;fill-rule:nonzero;stroke:none;stroke-width:2;marker:none;visibility:visible;display:inline;overflow:visible;enable-background:accumulate"
       id="rect4265"
       width="0.99827516"
       height="0.99906033"
       x="51.001541"
       y="-56.997173" />
    <rect
       style="color:#000000;fill:#0d0f11;fill-opacity:1;fill-rule:nonzero;stroke:none;stroke-width:2;marker:none;visibility:visible;display:inline;overflow:visible;enable-background:accumulate"
       id="rect4265-8"
       width="0.99827516"
       height="0.99906033"
       x="51.001541"
       y="-59.00108" />
    <rect
       style="color:#000000;fill:#65676d;fill-opacity:1;fill-rule:nonzero;stroke:none;stroke-width:2;marker:none;visibility:visible;display:inline;overflow:visible;enable-background:accumulate"
       id="rect4265-80"
       width="0.99827516"
       height="0.99906033"
       x="58.006321"
       y="-56.997173" />
    <rect
       style="color:#000000;fill:#0d0f11;fill-opacity:1;fill-rule:nonzero;stroke:none;stroke-width:2;marker:none;visibility:visible;display:inline;overflow:visible;enable-background:accumulate"
       id="rect4265-8-1"
       width="0.99827516"
       height="0.99906033"
       x="58.006321"
       y="-59.00108" />
    <path
       style="fill:#30393f;fill-opacity:1;stroke:none"
       d="m 52.036745,-52.984375 5.97888,0 -0.400184,0.988414 L 52,-52.009008 z"
       id="path4306-3"
       inkscape:connector-curvature="0"
       sodipodi:nodetypes="ccccc" />
    <path
       style="color:#000000;fill:#65676d;fill-opacity:1;fill-rule:nonzero;stroke:none;stroke-width:2;marker:none;visibility:visible;display:inline;overflow:visible;enable-background:accumulate"
       d="m 53.953125,-47 1.65625,0 -0.390625,1.015625 -1.65625,0 z"
       id="rect4343"
       inkscape:connector-curvature="0"
       sodipodi:nodetypes="ccccc" />
  </g>
</svg>
