<?xml version="1.0" encoding="UTF-8" standalone="no"?>
<!-- Created with Inkscape (http://www.inkscape.org/) -->

<svg
   xmlns:dc="http://purl.org/dc/elements/1.1/"
   xmlns:cc="http://creativecommons.org/ns#"
   xmlns:rdf="http://www.w3.org/1999/02/22-rdf-syntax-ns#"
   xmlns:svg="http://www.w3.org/2000/svg"
   xmlns="http://www.w3.org/2000/svg"
   xmlns:xlink="http://www.w3.org/1999/xlink"
   xmlns:sodipodi="http://sodipodi.sourceforge.net/DTD/sodipodi-0.dtd"
   xmlns:inkscape="http://www.inkscape.org/namespaces/inkscape"
   width="368"
   height="16"
   id="svg2"
   version="1.1"
   inkscape:version="0.48.1 r9760"
   sodipodi:docname="mail-toolbar-symbolic.svg">
  <defs
     id="defs4">
    <linearGradient
       inkscape:collect="always"
       xlink:href="#linearGradient5367"
       id="linearGradient7161"
       gradientUnits="userSpaceOnUse"
       x1="200.16345"
       y1="4.6722136"
       x2="200.16345"
       y2="15.161391"
       gradientTransform="translate(60.985535,-37.012337)" />
    <linearGradient
       inkscape:collect="always"
       id="linearGradient5367">
      <stop
         style="stop-color:#000000;stop-opacity:0.7"
         offset="0"
         id="stop5369" />
      <stop
         style="stop-color:#000000;stop-opacity:0.5"
         offset="1"
         id="stop5371" />
    </linearGradient>
  </defs>
  <sodipodi:namedview
     id="base"
     pagecolor="#ffffff"
     bordercolor="#666666"
     borderopacity="1.0"
     inkscape:pageopacity="0.0"
     inkscape:pageshadow="2"
     inkscape:zoom="2.8284271"
     inkscape:cx="205.79875"
     inkscape:cy="21.161897"
     inkscape:current-layer="layer1"
     showgrid="true"
     inkscape:grid-bbox="true"
     inkscape:document-units="px"
     inkscape:snap-nodes="false"
     inkscape:window-width="1366"
     inkscape:window-height="711"
     inkscape:window-x="0"
     inkscape:window-y="26"
     inkscape:window-maximized="1"
     showguides="true"
     inkscape:guide-bbox="true">
    <inkscape:grid
       type="xygrid"
       id="grid3097"
       empspacing="5"
       visible="true"
       enabled="true"
       snapvisiblegridlinesonly="true" />
    <sodipodi:guide
       orientation="1,0"
       position="16,-5"
       id="guide3205" />
    <sodipodi:guide
       orientation="1,0"
       position="32,-5"
       id="guide3207" />
    <sodipodi:guide
       orientation="1,0"
       position="48,-5"
       id="guide3209" />
    <sodipodi:guide
       orientation="1,0"
       position="64,-5"
       id="guide3211" />
    <sodipodi:guide
       orientation="1,0"
       position="80,-5"
       id="guide3213" />
    <sodipodi:guide
       orientation="1,0"
       position="96,-5"
       id="guide3215" />
    <sodipodi:guide
       orientation="1,0"
       position="112,-5"
       id="guide3217" />
    <sodipodi:guide
       orientation="1,0"
       position="128,-5"
       id="guide3219" />
    <sodipodi:guide
       orientation="1,0"
       position="144,-5"
       id="guide3221" />
    <sodipodi:guide
       orientation="1,0"
       position="160,-5"
       id="guide3223" />
    <sodipodi:guide
       orientation="1,0"
       position="176,-5"
       id="guide3225" />
    <sodipodi:guide
       orientation="1,0"
       position="0,-5"
       id="guide3227" />
    <sodipodi:guide
       orientation="0,1"
       position="-12,16"
       id="guide3229" />
    <sodipodi:guide
       orientation="0,1"
       position="-12,0"
       id="guide3231" />
    <sodipodi:guide
       orientation="1,0"
       position="192,-5"
       id="guide3233" />
    <sodipodi:guide
       orientation="1,0"
       position="208,-5"
       id="guide3310" />
    <sodipodi:guide
       orientation="1,0"
       position="224,-5"
       id="guide3312" />
    <sodipodi:guide
       orientation="1,0"
       position="240,-5"
       id="guide3314" />
    <sodipodi:guide
       orientation="1,0"
       position="256,-5"
       id="guide3316" />
    <sodipodi:guide
       orientation="1,0"
       position="272,-5"
       id="guide4279" />
    <sodipodi:guide
       orientation="1,0"
       position="288,-5"
       id="guide4281" />
    <sodipodi:guide
       orientation="1,0"
       position="304,-5"
       id="guide4283" />
    <sodipodi:guide
       orientation="1,0"
       position="320,-5"
       id="guide4393" />
    <sodipodi:guide
       orientation="1,0"
       position="336,-5"
       id="guide4395" />
    <sodipodi:guide
       orientation="1,0"
       position="352,-5"
       id="guide4397" />
  </sodipodi:namedview>
  <metadata
     id="metadata7">
    <rdf:RDF>
      <cc:Work
         rdf:about="">
        <dc:format>image/svg+xml</dc:format>
        <dc:type
           rdf:resource="http://purl.org/dc/dcmitype/StillImage" />
        <dc:title />
      </cc:Work>
    </rdf:RDF>
  </metadata>
  <g
     id="layer1"
     inkscape:label="Layer 1"
     inkscape:groupmode="layer">
    <path
       id="path2989"
       fill="MenuText"
       d="m 39.972711,1.9667388 c -2.209139,0 -4,1.790861 -4,4 0,1.494159 0.817455,2.781955 2.03125,3.468751 l 0,0.5312499 -2.03125,0 c -1.09801,0 -1.96875,0.8920003 -1.96875,2.0000003 l 0,3.031249 12,0 0,-3.03125 c 0,-1.108 -0.870751,-2.0000003 -1.968751,-2.0000003 l -2.03125,0 0,-0.5624989 c 1.180888,-0.695334 1.96875,-1.967966 1.96875,-3.437501 0,-2.209139 -1.790861,-4 -3.999999,-4 z"
       inkscape:connector-curvature="0" />
    <path
       id="path3000"
       fill="MenuText"
       d="m 291.98961,2.0255871 0,1 8,0 0,-1 -8,0 z m -1,2 0,1.03125 10,0 0,-1.03125 -10,0 z m -0.9375,1.96875 0,0.21875 5.96875,5.6249999 5.875,-5.6874999 0,-0.15625 -11.84375,0 z m 11.9375,1.5625 -5.9375,5.6250009 -6.0625,-5.5937509 0,7.4062509 12,0 0,-7.4375009 z"
       inkscape:connector-curvature="0" />
    <path
       id="path3011"
       fill="MenuText"
       d="m 274.27846,1.1066073 c -0.19088,0.0066 -0.3599,0.0379 -0.53125,0.125 -0.67184,0.341504 -0.78852,1.445975 -0.4375,2.0625 l 1.8125,2.5625 -1,0.5625001 c -0.41909,0.674721 0.1503,0.933659 0.75,1.34375 1.25437,-0.768295 2.48389,-1.57597 3.71875,-2.3750001 -0.073,-0.712718 0.0178,-1.177022 -0.71875,-1.09375 l -0.875,0.5 -1.28125,-2.9375 c -0.26327,-0.462399 -0.86486,-0.769705 -1.4375,-0.75 z m 0.3125,1 c 0.26527,0 0.46875,0.202695 0.46875,0.46875 0,0.266055 -0.20348,0.46875 -0.46875,0.46875 -0.26527,0 -0.5,-0.202695 -0.5,-0.46875 0,-0.266055 0.23473,-0.46875 0.5,-0.46875 z m 4.25,4.2812501 c -1.06117,0.706214 -2.13634,1.38965 -3.21875,2.062501 l 0,0.09375 c -0.0528,1.7521936 0.54926,4.6270836 2.3125,6.4374986 0.21255,0.007 0.47459,-0.02041 0.75,-0.0625 0,-4e-6 -0.79725,-0.944591 -0.96875,-3.1875 0.41806,1.357757 1.40336,2.597428 1.875,3 0.3896,-0.108891 0.81386,-0.28665 1.25,-0.46875 0,0 -1.07512,-1.158279 -1.5625,-3.71875 0.8168,1.166666 1.93207,2.582529 2.4375,3.34375 0.50795,-0.251123 1.02607,-0.543514 1.53125,-0.875 -0.92222,-1.172938 -2.58942,-3.3109597 -3.5,-4.4687486 0,0 3.18863,3.2243976 4.4375,3.7812486 0.4144,-0.327398 0.8147,-0.673803 1.1875,-1.0625 -2.8077,-1.3812307 -4.86293,-4.4474856 -6.5,-4.8749996 z"
       inkscape:connector-curvature="0" />
    <path
       id="path3022"
       fill="MenuText"
       d="m 89.012795,3.0363856 6.28906,5.09375 -6.27734,5.1562504 -0.008,-3.304691 -7.003516,-0.004 0.002,-3.9946594 7.001776,-0.009 -0.004,-2.9375 z"
       inkscape:connector-curvature="0" />
    <path
       id="path3033"
       fill="MenuText"
       d="m 6.9707651,1.9638039 c -0.554,0 -1,0.446 -1,1 l 0,2.992187 -2.96875,0 4.964959,6.0150701 5.0975399,-6.0150701 -3.078125,0 0,-2.992187 c 0,-0.554 -0.4459989,-1 -0.9999989,-1 z m -4.96875,8.0312495 c -0.55088,0 -1,0.4491206 -1,1.0000006 l 0,3 c 0,0.616361 0.409683,1 1,1 l 11.9999989,0 c 0.571973,0 1,-0.370407 1,-0.96875 l 0,-3.03125 c 0,-0.55088 -0.44912,-1.0000006 -1,-1.0000006 -0.550879,0 -1,0.4491206 -1,1.0000006 l 0,1.96875 -9.9999989,0 0,-1.96875 c 0,-0.55088 -0.44912,-1.0000006 -1,-1.0000006 z"
       inkscape:connector-curvature="0" />
    <path
       id="path3044"
       fill="MenuText"
       d="m 27.59101,2.6808786 c -0.251625,1e-6 -0.494695,0.119692 -0.6875,0.3125 l -7.09375,7.0937504 2.8125,2.8125 7.09375,-7.0937504 c 0.38561,-0.385616 0.38561,-1.020636 0,-1.40625 l -1.4375,-1.40625 c -0.192805,-0.192807 -0.435875,-0.3125 -0.6875,-0.3125 z m -8.5,8.0937504 -1.34375,4.21875 4.1875,-1.375 -2.84375,-2.84375 z"
       inkscape:connector-curvature="0" />
    <path
       id="path3055"
       fill="MenuText"
       d="m 70.063584,1.6246603 -5.968751,4.843749 -0.03125,0.5 6.000001,4.9062497 0,-2.3124997 -3.218751,-2.78125 3.218751,-2.71875 z m 4.03125,0.0625 -6.312501,5.093749 6.312501,5.1562497 0,-2.8749997 c 1.079556,-0.01378 1.956215,0.04374 2.874999,0.4375 0.13984,0.1046132 0.19041,0.1529532 0.1875,0.2812502 -0.0476,2.1029365 -2.156249,4.3749995 -2.156249,4.3749995 l 0.5625,0.8125 c 0,0 1.09889,-0.448862 2.218749,-1.3125 1.11986,-0.863637 2.3125,-2.183142 2.3125,-3.9687495 0,-1.1514222 -0.41866,-2.0904782 -1.0625,-2.7500002 -0.64383,-0.659522 -1.47827,-1.070669 -2.281249,-1.34375 -0.80297,-0.273081 -1.59603,-0.407845 -2.1875,-0.46875 -0.19306,-0.01988 -0.32275,-0.02418 -0.46875,-0.03125 z"
       inkscape:connector-curvature="0" />
    <path
       id="path3066"
       fill="MenuText"
       d="m 55.972587,1.7460085 -6.312501,5.09375 6.312501,5.1562495 0,-2.8749995 c 1.227775,-0.05107 2.248993,0.0612 3.062499,0.7187504 -0.0476,2.1029361 -2.156249,4.3750001 -2.156249,4.3750001 l 0.5625,0.8125 c 0,0 1.098889,-0.448862 2.218749,-1.3125 1.11986,-0.863638 2.3125,-2.183143 2.3125,-3.9687501 0,-3.2907364 -3.128053,-4.5937504 -5.999999,-4.5937504 z"
       inkscape:connector-curvature="0" />
    <path
       id="path3077"
       fill="MenuText"
       d="m 226.38926,1.0339474 c -0.38902,0 -0.71491,0.152405 -0.96875,0.40625 -0.25385,0.253845 -0.4375,0.61098 -0.4375,1 l 0,4.34375 c 0.0913,0.644484 0.39999,0.9624927 0.8125,1.3749997 l 5.5625,5.5624999 c 0.39345,0.39345 1.04405,0.39345 1.4375,0 l 4.875,-4.8749999 c 0.39345,-0.393449 0.39345,-1.044052 0,-1.4374997 l -5.5625,-5.5625 c -0.41437,-0.426387 -0.77646,-0.738411 -1.375,-0.8125 l -4.34375,0 z m 1.0625,0.96875 c 0.82986,0 1.5,0.670136 1.5,1.5 0,0.829864 -0.67014,1.53125 -1.5,1.53125 -0.82986,0 -1.5,-0.701386 -1.5,-1.53125 0,-0.829864 0.67014,-1.5 1.5,-1.5 z"
       inkscape:connector-curvature="0" />
    <path
       id="path3088"
       fill="MenuText"
       d="m 322.08859,2.02039 c -0.57612,0 -1.0625,0.455126 -1.0625,1.03125 l 0,7.9375 c 0,0.576124 0.48638,1.03125 1.0625,1.03125 l 6.8125,0 3.15625,3.03125 0,-3.03125 1.90908,0 c 0.57612,0 1.03125,-0.455126 1.03125,-1.03125 l 0,-7.9375 c 0,-0.576124 -0.45513,-1.03125 -1.03125,-1.03125 z"
       inkscape:connector-curvature="0" />
    <path
       id="path3237"
       fill="MenuText"
       d="m 98.20681,1.0031217 c -0.66506,0 -1.1875,0.446 -1.1875,1.0000002 l 0,11.0000001 c 0,0.554 0.52244,1 1.1875,1 l 4.5625,0 c 0.80557,1.21621 2.18194,2 3.75,2 2.48528,0 4.5,-2.014719 4.5,-4.5 0,-1.5680591 -0.78379,-2.9444261 -2,-3.7500001 l 0,-5.75 c 0,-0.5540002 -0.52244,-1.0000002 -1.1875,-1.0000002 l -9.625,0 z m -0.1875,1.0312502 10,0 0,1.96875 -10,0 0,-1.96875 z m 0,3.96875 10,0 0,1.28125 c -0.47255,-0.168538 -0.96957,-0.28125 -1.5,-0.28125 -1.06306,0 -2.04248,0.383614 -2.8125,1 l -5.6875,0 0,-2 z m 8.96875,1.96875 0,2.0625001 c 1.83059,0.130318 2.69558,1.283347 3.09375,2.9375 -0.92438,-0.744456 -1.92258,-1.202523 -3.0625,-0.9375 l 0,1.90625 -4,-2.96875 3.96875,-3.0000001 z m -8.96875,2.0312491 4.28125,0 c -0.16854,0.472551 -0.28125,0.969567 -0.28125,1.500001 0,0.171777 0.0438,0.333229 0.0625,0.5 l -4.0625,0 0,-2.000001 z"
       inkscape:connector-curvature="0" />
    <path
       id="path3248"
       fill="MenuText"
       d="m 119.94959,2.0206728 c -3.31231,0 -6,2.687692 -6,5.9999999 0,3.3123073 2.68769,6.0312493 6,6.0312493 3.31231,0 6.03125,-2.718942 6.03125,-6.0312493 0,-3.3123079 -2.71895,-5.9999999 -6.03125,-5.9999999 z m 0,1.96875 c 2.23142,0 4.03125,1.799822 4.03125,4.0312499 0,0.7621672 -0.22915,1.4563782 -0.59375,2.0624993 l -5.5,-5.4999992 c 0.60612,-0.364607 1.30033,-0.59375 2.0625,-0.59375 z m -3.53125,2.125 5.4375,5.4374992 c -0.56766,0.304927 -1.21394,0.5 -1.90625,0.5 -2.23143,0 -4.03125,-1.799823 -4.03125,-4.0312493 0,-0.694785 0.19303,-1.3371649 0.5,-1.9062499 z"
       inkscape:connector-curvature="0" />
    <path
       id="path3259"
       fill="MenuText"
       d="m 132.51944,2.0237959 c -0.83966,0 -1.53125,0.691585 -1.53125,1.53125 l 0,1.46875 c -1.04606,0.04679 -3,2.727003 -3,4.125 l 0,2.9375011 c 0,0.971479 1.01779,1.9375 1.53125,1.9375 l 1.46875,0 0,1 c 0,0.545351 0.45465,1 1,1 l 8,0 c 0.54535,0 1,-0.454649 1,-1 l 0,-1 1.46875,0 c 0.50781,-0.0046 1.53125,-0.93449 1.53125,-1.9375 l 0,-2.9375011 c 0,-1.414466 -1.96117,-4.125 -3,-4.125 l 0,-1.46875 c 0,-0.839665 -0.69159,-1.53125 -1.53125,-1.53125 l -6.9375,0 z m 0,1 6.9375,0 c 0.30296,0 0.53125,0.228291 0.53125,0.53125 l 0,3.9375 c 0,0.30296 -0.22829,0.53125 -0.53125,0.53125 l -6.9375,0 c -0.30296,0 -0.53125,-0.22829 -0.53125,-0.53125 l 0,-3.9375 c 0,-0.302959 0.22829,-0.53125 0.53125,-0.53125 z m -2.53125,6.96875 1,0 0,1.0000001 -1,0 0,-1.0000001 z m 2,0 1,0 0,1.0000001 -1,0 0,-1.0000001 z m 0,3.0312511 8,0 0,2 -8,0 0,-2 z"
       inkscape:connector-curvature="0" />
    <path
       id="path3270"
       fill="MenuText"
       d="m 148.38924,2.9865437 -1.41301,1.444412 3.54823,3.548229 -3.54823,3.5482293 1.41301,1.444412 3.54823,-3.5482293 3.54823,3.5482293 1.44441,-1.444412 -3.54823,-3.5482293 3.54823,-3.548229 -1.44441,-1.444412 -3.54823,3.548229 -3.54823,-3.548229 z"
       inkscape:connector-curvature="0" />
    <path
       id="path4871-3"
       d="m 338.01525,3.999688 6.06055,7.97142 5.94189,-7.969049 z"
       inkscape:connector-curvature="0"
       style="fill:#000000;fill-opacity:1" />
    <path
       id="path4871-3-45"
       d="m 354.03778,12.000311 6.06055,-7.97142 5.94189,7.969049 z"
       inkscape:connector-curvature="0"
       style="fill:#000000;fill-opacity:1" />
    <path
       id="path3022-0"
       d="m 173.00803,8.0015047 -5.53569,5.9901963 -5.47587,-5.9941013 2.99931,-0.008 0.0196,-5.9925627 4.99467,0.002 -0.0144,5.9986352 z"
       inkscape:connector-curvature="0"
       style="fill:#000000;fill-opacity:1"
       sodipodi:nodetypes="cccccccc" />
    <path
       style="font-size:medium;font-style:normal;font-variant:normal;font-weight:normal;font-stretch:normal;text-indent:0;text-align:start;text-decoration:none;line-height:normal;letter-spacing:normal;word-spacing:normal;text-transform:none;direction:ltr;block-progression:tb;writing-mode:lr-tb;text-anchor:start;baseline-shift:baseline;color:#000000;fill:#000000;fill-opacity:1;stroke:none;stroke-width:2.90585852;marker:none;visibility:visible;display:inline;overflow:visible;enable-background:accumulate;font-family:Sans;-inkscape-font-specification:Sans"
       d="m 310.96996,2.0012129 c -2.74989,0 -4.96875,2.218873 -4.96875,4.96875 0,2.7498761 2.21886,5.0000001 4.96875,5.0000001 1.01647,0 1.99149,-0.287746 2.78125,-0.8125 l 3.46875,3.46875 a 1.0001,1.0001 0 1 0 1.40625,-1.40625 l -3.46875,-3.5 c 0.51549,-0.7851291 0.8125,-1.7433491 0.8125,-2.7500001 0,-2.749877 -2.25013,-4.96875 -5,-4.96875 z m 0,1.96875 c 1.66899,0 3.03125,1.331003 3.03125,3 0,1.668997 -1.36226,3.0312501 -3.03125,3.0312501 -1.66899,0 -3,-1.3622531 -3,-3.0312501 0,-1.668997 1.33101,-3 3,-3 z"
       id="path3258"
       inkscape:connector-curvature="0" />
    <path
       style="fill:#000000;fill-opacity:1;stroke:none"
       d="m 179.96875,2 3.34375,4.96875 -3.34375,0 4.0625,6.03125 4,-6.03125 -3.28125,0 3.28125,-4.9375 L 179.96875,2 z"
       id="path5212"
       inkscape:connector-curvature="0" />
    <path
       style="fill:#000000;fill-opacity:1;stroke:none"
       d="M 200.0625,2 196,8.0625 l 3.34375,0 -3.34375,5 8.0625,-0.03125 -3.3125,-5 3.3125,0 -4,-6.03125 z"
       id="path5212-1"
       inkscape:connector-curvature="0" />
    <path
       id="path5035"
       d="m 219.95581,5.8846726 c -1.10476,0 -2.07157,0.611874 -2.59375,1.5000002 -0.33633,-0.23514 -0.80399,-0.40625 -1.40625,-0.40625 -0.61205,0 -1.07483,0.203737 -1.40625,0.46875 -0.52053,-0.8946702 -1.48409,-1.5000002 -2.59375,-1.5000002 -1.65973,0 -3,1.3402722 -3,3.0000002 0,1.6597282 1.34027,3.0000002 3,3.0000002 1.65973,0 3,-1.367616 3,-3.0273442 l -0.0861,-0.582031 c 0.15097,-0.203065 0.48487,-0.453125 1.0625,-0.453125 0.59212,0 0.91739,0.240366 1.07813,0.421875 l -0.0664,0.609375 c 0,1.6597282 1.35199,3.0000002 3.01172,3.0000002 1.65973,0 3,-1.340272 3,-3.0000002 0,-1.659728 -1.34027,-3.0312502 -3,-3.0312502 z"
       inkscape:connector-curvature="0"
       style="fill:#000000;fill-opacity:1"
       sodipodi:nodetypes="ccscsssccsccsscc" />
    <path
       id="path4353"
       fill="MenuText"
       d="m 252.03173,3.9830252 -9.00268,4.561498 9,4.4721898 z"
       inkscape:connector-curvature="0" />
    <path
       id="path4364"
       fill="MenuText"
       d="m 260.01468,3.938832 9.00267,4.561498 -8.99999,4.472189 z"
       inkscape:connector-curvature="0" />
  </g>
</svg>
