<?xml version="1.0" encoding="UTF-8" standalone="no"?>
<!-- Created with Inkscape (http://www.inkscape.org/) -->
<svg xmlns:rdf="http://www.w3.org/1999/02/22-rdf-syntax-ns#" xmlns="http://www.w3.org/2000/svg" height="32" width="368" version="1.1" xmlns:cc="http://creativecommons.org/ns#" xmlns:xlink="http://www.w3.org/1999/xlink" xmlns:dc="http://purl.org/dc/elements/1.1/">
 <defs></defs>
 <metadata>
  <rdf:RDF>
   <cc:Work rdf:about="">
    <dc:format>image/svg+xml</dc:format>
    <dc:type rdf:resource="http://purl.org/dc/dcmitype/StillImage"/>
    <dc:title/>
   </cc:Work>
  </rdf:RDF>
 </metadata>
 <g transform="translate(0,16)">
  <path d="m39.973,1.9667c-2.2091,0-4,1.7909-4,4,0,1.4942,0.81746,2.782,2.0312,3.4688v0.53125h-2.0312c-1.098,0-1.9688,0.892-1.9688,2v3.0312h12v-3.0312c0-1.108-0.87075-2-1.9688-2h-2.0312v-0.5625c1.1809-0.69533,1.9688-1.968,1.9688-3.4375,0-2.2091-1.7909-4-4-4z" fill="#f57900"/>
  <path d="m291.99,2.0256,0,1,8,0,0-1-8,0zm-1,2,0,1.0312,10,0,0-1.0312-10,0zm-0.9375,1.9688,0,0.21875,5.9688,5.625,5.875-5.6875,0-0.15625-11.844,0zm11.938,1.5625-5.9375,5.625-6.0625-5.5938,0,7.4063,12,0,0-7.4375z" fill="#f57900"/>
  <path d="m274.28,1.1066c-0.19088,0.0066-0.3599,0.0379-0.53125,0.125-0.67184,0.3415-0.78852,1.446-0.4375,2.0625l1.8125,2.5625-1,0.5625c-0.41909,0.67472,0.1503,0.93366,0.75,1.3438,1.2544-0.7683,2.4839-1.576,3.7188-2.375-0.073-0.71272,0.0178-1.177-0.71875-1.0938l-0.875,0.5-1.2812-2.9375c-0.26327-0.4624-0.86486-0.7697-1.4375-0.75zm0.3125,1c0.26527,0,0.46875,0.2027,0.46875,0.46875,0,0.26606-0.20348,0.46875-0.46875,0.46875s-0.5-0.2027-0.5-0.46875c0-0.26606,0.23473-0.46875,0.5-0.46875zm4.25,4.2813c-1.0612,0.70621-2.1363,1.3896-3.2188,2.0625v0.09375c-0.0528,1.7522,0.54926,4.6271,2.3125,6.4375,0.21255,0.007,0.47459-0.02041,0.75-0.0625,0-0.000004-0.79725-0.94459-0.96875-3.1875,0.41806,1.3578,1.4034,2.5974,1.875,3,0.3896-0.10889,0.81386-0.28665,1.25-0.46875,0,0-1.0751-1.1583-1.5625-3.7188,0.8168,1.1667,1.9321,2.5825,2.4375,3.3438,0.50795-0.25112,1.0261-0.54351,1.5312-0.875-0.92222-1.1729-2.5894-3.311-3.5-4.4687,0,0,3.1886,3.2244,4.4375,3.7812,0.4144-0.3274,0.8147-0.6738,1.1875-1.0625-2.8077-1.3812-4.8629-4.4475-6.5-4.875z" fill="#f57900"/>
  <path d="m89.013,3.0364,6.2891,5.0938-6.2773,5.1563-0.008-3.3047-7.0035-0.004,0.002-3.9947,7.0018-0.009-0.004-2.9375z" fill="#f57900"/>
  <path d="m6.9708,1.9638c-0.554,0-1,0.446-1,1v2.9922h-2.9688l4.965,6.0151,5.0975-6.0151h-3.0781v-2.9922c0-0.554-0.446-1-1-1zm-4.9688,8.0312c-0.55088,0-1,0.44912-1,1v3c0,0.61636,0.40968,1,1,1h12c0.57197,0,1-0.37041,1-0.96875v-3.0312c0-0.55088-0.44912-1-1-1s-1,0.44912-1,1v1.9688h-10v-1.9688c0-0.55088-0.44912-1-1-1z" fill="#f57900"/>
  <path d="m27.591,2.6809c-0.25162,0.000001-0.4947,0.11969-0.6875,0.3125l-7.0938,7.0938,2.8125,2.8125,7.0938-7.0938c0.38561-0.38562,0.38561-1.0206,0-1.4062l-1.4375-1.4062c-0.1928-0.19281-0.43588-0.3125-0.6875-0.3125zm-8.5,8.0938-1.3438,4.2188,4.1875-1.375-2.8438-2.8438z" fill="#f57900"/>
  <path d="m70.064,1.6247-5.9688,4.8437-0.03125,0.5,6,4.9062,0-2.3125-3.2188-2.7812,3.2188-2.7188zm4.0312,0.0625-6.3125,5.0937,6.3125,5.1562,0-2.875c1.0796-0.01378,1.9562,0.04374,2.875,0.4375,0.13984,0.10461,0.19041,0.15295,0.1875,0.28125-0.0476,2.1029-2.1562,4.375-2.1562,4.375l0.5625,0.8125s1.0989-0.44886,2.2187-1.3125c1.1199-0.86364,2.3125-2.1831,2.3125-3.9687,0-1.1514-0.41866-2.0905-1.0625-2.75-0.64383-0.65952-1.4783-1.0707-2.2812-1.3438-0.80297-0.27308-1.596-0.40784-2.1875-0.46875-0.19306-0.01988-0.32275-0.02418-0.46875-0.03125z" fill="#f57900"/>
  <path d="m55.973,1.746-6.3125,5.0938,6.3125,5.1562,0-2.875c1.2278-0.05107,2.249,0.0612,3.0625,0.71875-0.0476,2.1029-2.1562,4.375-2.1562,4.375l0.5625,0.8125s1.0989-0.44886,2.2187-1.3125c1.1199-0.86364,2.3125-2.1831,2.3125-3.9688,0-3.2907-3.1281-4.5938-6-4.5938z" fill="#f57900"/>
  <path d="m226.39,1.0339c-0.38902,0-0.71491,0.1524-0.96875,0.40625-0.25385,0.25384-0.4375,0.61098-0.4375,1v4.3438c0.0913,0.64448,0.39999,0.96249,0.8125,1.375l5.5625,5.5625c0.39345,0.39345,1.044,0.39345,1.4375,0l4.875-4.875c0.39345-0.39345,0.39345-1.0441,0-1.4375l-5.5625-5.5625c-0.41437-0.42639-0.77646-0.73841-1.375-0.8125h-4.3438zm1.0625,0.96875c0.82986,0,1.5,0.67014,1.5,1.5s-0.67014,1.5312-1.5,1.5312-1.5-0.70139-1.5-1.5312c0-0.82986,0.67014-1.5,1.5-1.5z" fill="#f57900"/>
  <path d="m322.09,2.0204c-0.57612,0-1.0625,0.45513-1.0625,1.0312v7.9375c0,0.57612,0.48638,1.0312,1.0625,1.0312h6.8125l3.1562,3.0312v-3.0312h1.9091c0.57612,0,1.0312-0.45513,1.0312-1.0312v-7.9375c0-0.57612-0.45513-1.0312-1.0312-1.0312z" fill="#f57900"/>
  <path d="m98.207,1.0031c-0.66506,0-1.1875,0.446-1.1875,1v11c0,0.554,0.52244,1,1.1875,1h4.5625c0.80557,1.2162,2.1819,2,3.75,2,2.4853,0,4.5-2.0147,4.5-4.5,0-1.5681-0.78379-2.9444-2-3.75v-5.75c0-0.554-0.52244-1-1.1875-1h-9.625zm-0.1875,1.0313,10,0,0,1.9688-10,0,0-1.9688zm0,3.9688,10,0,0,1.2812c-0.47255-0.16854-0.96957-0.28125-1.5-0.28125-1.0631,0-2.0425,0.38361-2.8125,1h-5.6875v-2zm8.9688,1.9688,0,2.0625c1.8306,0.13032,2.6956,1.2833,3.0938,2.9375-0.92438-0.74446-1.9226-1.2025-3.0625-0.9375v1.9062l-4-2.9688,3.9688-3zm-8.9688,2.0312,4.2812,0c-0.16854,0.47255-0.28125,0.96957-0.28125,1.5,0,0.17178,0.0438,0.33323,0.0625,0.5h-4.0625v-2z" fill="#f57900"/>
  <path d="m119.95,2.0207c-3.3123,0-6,2.6877-6,6s2.6877,6.0312,6,6.0312,6.0312-2.7189,6.0312-6.0312-2.719-6-6.0312-6zm0,1.9688c2.2314,0,4.0312,1.7998,4.0312,4.0312,0,0.76217-0.22915,1.4564-0.59375,2.0625l-5.5-5.5c0.60612-0.36461,1.3003-0.59375,2.0625-0.59375zm-3.5312,2.125,5.4375,5.4375c-0.56766,0.30493-1.2139,0.5-1.9062,0.5-2.2314,0-4.0312-1.7998-4.0312-4.0312,0-0.69478,0.19303-1.3372,0.5-1.9062z" fill="#f57900"/>
  <path d="m132.52,2.0238c-0.83966,0-1.5312,0.69158-1.5312,1.5312v1.4688c-1.0461,0.04679-3,2.727-3,4.125v2.9375c0,0.97148,1.0178,1.9375,1.5312,1.9375h1.4688v1c0,0.54535,0.45465,1,1,1h8c0.54535,0,1-0.45465,1-1v-1h1.4688c0.50781-0.0046,1.5312-0.93449,1.5312-1.9375v-2.9375c0-1.4145-1.9612-4.125-3-4.125v-1.4688c0-0.83966-0.69159-1.5312-1.5312-1.5312h-6.9375zm0,1,6.9375,0c0.30296,0,0.53125,0.22829,0.53125,0.53125v3.9375c0,0.30296-0.22829,0.53125-0.53125,0.53125h-6.9375c-0.30296,0-0.53125-0.22829-0.53125-0.53125v-3.9375c0-0.30296,0.22829-0.53125,0.53125-0.53125zm-2.5312,6.9688,1,0,0,1-1,0,0-1zm2,0,1,0,0,1-1,0,0-1zm0,3.0313,8,0,0,2-8,0,0-2z" fill="#f57900"/>
  <path d="m148.39,2.9865-1.413,1.4444,3.5482,3.5482-3.5482,3.5482,1.413,1.4444,3.5482-3.5482,3.5482,3.5482,1.4444-1.4444-3.5482-3.5482,3.5482-3.5482-1.4444-1.4444-3.5482,3.5482-3.5482-3.5482z" fill="#f57900"/>
  <path fill="#f57900" d="m338.02,3.9997,6.0606,7.9714,5.9419-7.969z"/>
  <path fill="#f57900" d="m354.04,12,6.0606-7.9714,5.9419,7.969z"/>
  <path fill="#f57900" d="m173.01,8.0015-5.5357,5.9902-5.4759-5.9941,2.9993-0.008,0.0196-5.9926,4.9947,0.002-0.0144,5.9986z"/>
  <path style="baseline-shift:baseline;block-progression:tb;color:#000000;direction:ltr;text-indent:0;text-align:start;enable-background:accumulate;text-transform:none;" fill="#f57900" d="m310.97,2.0012c-2.7499,0-4.9688,2.2189-4.9688,4.9688s2.2189,5,4.9688,5c1.0165,0,1.9915-0.28775,2.7812-0.8125l3.4688,3.4688a1.0001,1.0001,0,1,0,1.4062,-1.4062l-3.4688-3.5c0.51549-0.78513,0.8125-1.7433,0.8125-2.75,0-2.7499-2.2501-4.9688-5-4.9688zm0,1.9688c1.669,0,3.0312,1.331,3.0312,3s-1.3623,3.0313-3.0312,3.0313c-1.669,0-3-1.3623-3-3.0313s1.331-3,3-3z"/>
  <path fill="#f57900" d="m179.97,2,3.3438,4.9688-3.3438,0,4.0625,6.0312,4-6.0312-3.2812,0,3.2812-4.9375l-8.06-0.0313z"/>
  <path fill="#f57900" d="M200.06,2,196,8.0625h3.3438l-3.3438,5,8.0625-0.03125-3.3125-5h3.3125l-4-6.0312z"/>
  <path fill="#f57900" d="m219.96,5.8847c-1.1048,0-2.0716,0.61187-2.5938,1.5-0.33633-0.23514-0.80399-0.40625-1.4062-0.40625-0.61205,0-1.0748,0.20374-1.4062,0.46875-0.52053-0.89467-1.4841-1.5-2.5938-1.5-1.6597,0-3,1.3403-3,3s1.3403,3,3,3,3-1.3676,3-3.0273l-0.0861-0.58203c0.15097-0.20306,0.48487-0.45312,1.0625-0.45312,0.59212,0,0.91739,0.24037,1.0781,0.42188l-0.0664,0.60938c0,1.6597,1.352,3,3.0117,3s3-1.3403,3-3-1.3403-3.0313-3-3.0313z"/>
  <path d="m252.03,3.983-9.0027,4.5615,9,4.4722z" fill="#f57900"/>
  <path d="m260.01,3.9388,9.0027,4.5615-9,4.4722z" fill="#f57900"/>
  <path d="m39.973-14.033c-2.2091,0-4,1.7909-4,4,0,1.4942,0.81746,2.782,2.0312,3.4688v0.53125h-2.0312c-1.098,0-1.9688,0.892-1.9688,2v3.0312h12v-3.0312c0-1.108-0.87075-2-1.9688-2h-2.0312v-0.5625c1.1809-0.69533,1.9688-1.968,1.9688-3.4375,0-2.2091-1.7909-4-4-4z" fill="#ef2929"/>
  <path d="m291.99-13.974,0,1,8,0,0-1-8,0zm-1,2,0,1.0312,10,0,0-1.0312-10,0zm-0.9375,1.9688,0,0.21875,5.9688,5.625,5.875-5.6875,0-0.15625-11.844,0zm11.938,1.5625-5.9375,5.625-6.0625-5.5938,0,7.4063,12,0,0-7.4375z" fill="#ef2929"/>
  <path d="m274.28-14.893c-0.19088,0.0066-0.3599,0.0379-0.53125,0.125-0.67184,0.3415-0.78852,1.446-0.4375,2.0625l1.8125,2.5625-1,0.5625c-0.41909,0.67472,0.1503,0.93366,0.75,1.3438,1.2544-0.7683,2.4839-1.576,3.7188-2.375-0.073-0.71272,0.0178-1.177-0.71875-1.0938l-0.875,0.5-1.2812-2.9375c-0.26327-0.4624-0.86486-0.7697-1.4375-0.75zm0.3125,1c0.26527,0,0.46875,0.2027,0.46875,0.46875,0,0.26606-0.20348,0.46875-0.46875,0.46875s-0.5-0.2027-0.5-0.46875c0-0.26606,0.23473-0.46875,0.5-0.46875zm4.25,4.2813c-1.0612,0.70621-2.1363,1.3896-3.2188,2.0625v0.09375c-0.0528,1.7522,0.54926,4.6271,2.3125,6.4375,0.21255,0.007,0.47459-0.02041,0.75-0.0625,0-0.000004-0.79725-0.94459-0.96875-3.1875,0.41806,1.3578,1.4034,2.5974,1.875,3,0.3896-0.10889,0.81386-0.28665,1.25-0.46875,0,0-1.0751-1.1583-1.5625-3.7188,0.8168,1.1667,1.9321,2.5825,2.4375,3.3438,0.50795-0.25112,1.0261-0.54351,1.5312-0.875-0.92222-1.1729-2.5894-3.311-3.5-4.4687,0,0,3.1886,3.2244,4.4375,3.7812,0.4144-0.3274,0.8147-0.6738,1.1875-1.0625-2.8077-1.3812-4.8629-4.4475-6.5-4.875z" fill="#ef2929"/>
  <path d="m89.013-12.964,6.2891,5.0937-6.2773,5.1563-0.008-3.3047-7.0035-0.004,0.002-3.9947,7.0018-0.009-0.004-2.9375z" fill="#ef2929"/>
  <path d="m6.9708-14.036c-0.554,0-1,0.446-1,1v2.9922h-2.9688l4.965,6.0151,5.0975-6.0151h-3.0781v-2.9922c0-0.554-0.446-1-1-1zm-4.9688,8.0312c-0.55088,0-1,0.44912-1,1v3c0,0.61636,0.40968,1,1,1h12c0.57197,0,1-0.37041,1-0.96875v-3.0312c0-0.55088-0.44912-1-1-1s-1,0.44912-1,1v1.9688h-10v-1.9688c0-0.55088-0.44912-1-1-1z" fill="#ef2929"/>
  <path d="m27.591-13.319c-0.25162,0.000001-0.4947,0.11969-0.6875,0.3125l-7.0938,7.0938,2.8125,2.8125,7.0938-7.0938c0.38561-0.38562,0.38561-1.0206,0-1.4062l-1.4375-1.4062c-0.1928-0.19281-0.43588-0.3125-0.6875-0.3125zm-8.5,8.0938-1.3438,4.2188,4.1875-1.375-2.8438-2.8438z" fill="#ef2929"/>
  <path d="m70.064-14.375-5.9688,4.8437-0.03125,0.5,6,4.9062,0-2.3125-3.2188-2.7812,3.2188-2.7188zm4.0312,0.0625-6.3125,5.0937,6.3125,5.1562,0-2.875c1.0796-0.01378,1.9562,0.04374,2.875,0.4375,0.13984,0.10461,0.19041,0.15295,0.1875,0.28125-0.0476,2.1029-2.1562,4.375-2.1562,4.375l0.5625,0.8125s1.0989-0.44886,2.2187-1.3125c1.1199-0.86364,2.3125-2.1831,2.3125-3.9687,0-1.1514-0.41866-2.0905-1.0625-2.75-0.64383-0.65952-1.4783-1.0707-2.2812-1.3438-0.80297-0.27308-1.596-0.40784-2.1875-0.46875-0.19306-0.01988-0.32275-0.02418-0.46875-0.03125z" fill="#ef2929"/>
  <path d="m55.973-14.254-6.3125,5.0937,6.3125,5.1562,0-2.875c1.2278-0.05107,2.249,0.0612,3.0625,0.71875-0.0476,2.1029-2.1562,4.375-2.1562,4.375l0.5625,0.8125s1.0989-0.44886,2.2187-1.3125c1.1199-0.86364,2.3125-2.1831,2.3125-3.9688,0-3.2907-3.1281-4.5937-6-4.5937z" fill="#ef2929"/>
  <path d="m226.39-14.966c-0.38902,0-0.71491,0.1524-0.96875,0.40625-0.25385,0.25384-0.4375,0.61098-0.4375,1v4.3438c0.0913,0.64448,0.39999,0.96249,0.8125,1.375l5.5625,5.5625c0.39345,0.39345,1.044,0.39345,1.4375,0l4.875-4.875c0.39345-0.39345,0.39345-1.0441,0-1.4375l-5.5625-5.5625c-0.41437-0.42639-0.77646-0.73841-1.375-0.8125h-4.3438zm1.0625,0.96875c0.82986,0,1.5,0.67014,1.5,1.5s-0.67014,1.5312-1.5,1.5312-1.5-0.70139-1.5-1.5312c0-0.82986,0.67014-1.5,1.5-1.5z" fill="#ef2929"/>
  <path d="m322.09-13.98c-0.57612,0-1.0625,0.45513-1.0625,1.0312v7.9375c0,0.57612,0.48638,1.0312,1.0625,1.0312h6.8125l3.1562,3.0312v-3.0312h1.9091c0.57612,0,1.0312-0.45513,1.0312-1.0312v-7.9375c0-0.57612-0.45513-1.0312-1.0312-1.0312z" fill="#ef2929"/>
  <path d="m98.207-14.997c-0.66506,0-1.1875,0.446-1.1875,1v11c0,0.554,0.52244,1,1.1875,1h4.5625c0.80557,1.2162,2.1819,2,3.75,2,2.4853,0,4.5-2.0147,4.5-4.5,0-1.5681-0.78379-2.9444-2-3.75v-5.75c0-0.554-0.52244-1-1.1875-1h-9.625zm-0.1875,1.0312,10,0,0,1.9688-10,0,0-1.9688zm0,3.9688,10,0,0,1.2812c-0.47255-0.16854-0.96957-0.28125-1.5-0.28125-1.0631,0-2.0425,0.38361-2.8125,1h-5.6875v-2zm8.9688,1.9687,0,2.0625c1.8306,0.13032,2.6956,1.2833,3.0938,2.9375-0.92438-0.74446-1.9226-1.2025-3.0625-0.9375v1.9062l-4-2.9688,3.9688-3zm-8.9688,2.0312,4.2812,0c-0.16854,0.47255-0.28125,0.96957-0.28125,1.5,0,0.17178,0.0438,0.33323,0.0625,0.5h-4.0625v-2z" fill="#ef2929"/>
  <path d="m119.95-13.979c-3.3123,0-6,2.6877-6,6s2.6877,6.0312,6,6.0312,6.0312-2.7189,6.0312-6.0312-2.719-6-6.0312-6zm0,1.9688c2.2314,0,4.0312,1.7998,4.0312,4.0312,0,0.76217-0.22915,1.4564-0.59375,2.0625l-5.5-5.5c0.60612-0.36461,1.3003-0.59375,2.0625-0.59375zm-3.5312,2.125,5.4375,5.4375c-0.56766,0.30493-1.2139,0.5-1.9062,0.5-2.2314,0-4.0312-1.7998-4.0312-4.0312,0-0.69478,0.19303-1.3372,0.5-1.9062z" fill="#ef2929"/>
  <path d="m132.52-13.976c-0.83966,0-1.5312,0.69158-1.5312,1.5312v1.4688c-1.0461,0.04679-3,2.727-3,4.125v2.9375c0,0.97148,1.0178,1.9375,1.5312,1.9375h1.4688v1c0,0.54535,0.45465,1,1,1h8c0.54535,0,1-0.45465,1-1v-1h1.4688c0.50781-0.0046,1.5312-0.93449,1.5312-1.9375v-2.9375c0-1.4145-1.9612-4.125-3-4.125v-1.4688c0-0.83966-0.69159-1.5312-1.5312-1.5312h-6.9375zm0,1,6.9375,0c0.30296,0,0.53125,0.22829,0.53125,0.53125v3.9375c0,0.30296-0.22829,0.53125-0.53125,0.53125h-6.9375c-0.30296,0-0.53125-0.22829-0.53125-0.53125v-3.9375c0-0.30296,0.22829-0.53125,0.53125-0.53125zm-2.5312,6.9687,1,0,0,1-1,0,0-1zm2,0,1,0,0,1-1,0,0-1zm0,3.0313,8,0,0,2-8,0,0-2z" fill="#ef2929"/>
  <path d="m148.39-13.013-1.413,1.4444,3.5482,3.5482-3.5482,3.5482,1.413,1.4444,3.5482-3.5482,3.5482,3.5482,1.4444-1.4444-3.5482-3.5482,3.5482-3.5482-1.4444-1.4444-3.5482,3.5482-3.5482-3.5482z" fill="#ef2929"/>
  <path fill="#ef2929" d="m338.02-12,6.0606,7.9714,5.9419-7.969z"/>
  <path fill="#ef2929" d="m354.04-3.9997,6.0606-7.9714,5.9419,7.969z"/>
  <path fill="#ef2929" d="m173.01-7.9985-5.5357,5.9902-5.4759-5.9941,2.9993-0.008,0.0196-5.9926,4.9947,0.002-0.0144,5.9986z"/>
  <path style="baseline-shift:baseline;block-progression:tb;color:#000000;direction:ltr;text-indent:0;text-align:start;enable-background:accumulate;text-transform:none;" fill="#ef2929" d="m310.97-13.999c-2.7499,0-4.9688,2.2189-4.9688,4.9687,0,2.7499,2.2189,5,4.9688,5,1.0165,0,1.9915-0.28775,2.7812-0.8125l3.4688,3.4688a1.0001,1.0001,0,1,0,1.4062,-1.4062l-3.4688-3.5c0.51549-0.78513,0.8125-1.7433,0.8125-2.75,0-2.7499-2.2501-4.9687-5-4.9687zm0,1.9688c1.669,0,3.0312,1.331,3.0312,3s-1.3623,3.0313-3.0312,3.0313c-1.669,0-3-1.3623-3-3.0313s1.331-3,3-3z"/>
  <path fill="#ef2929" d="m179.97-14,3.3438,4.9688-3.3438,0,4.0625,6.0312,4-6.0312-3.2812,0,3.2812-4.9375l-8.06-0.031z"/>
  <path fill="#ef2929" d="M200.06-14,196-7.9375h3.3438l-3.3438,5,8.0625-0.03125-3.3125-5h3.3125l-4-6.0312z"/>
  <path fill="#ef2929" d="m219.96-10.115c-1.1048,0-2.0716,0.61187-2.5938,1.5-0.33633-0.23514-0.80399-0.40625-1.4062-0.40625-0.61205,0-1.0748,0.20374-1.4062,0.46875-0.52053-0.89467-1.4841-1.5-2.5938-1.5-1.6597,0-3,1.3403-3,3s1.3403,3,3,3,3-1.3676,3-3.0273l-0.0861-0.58203c0.15097-0.20306,0.48487-0.45312,1.0625-0.45312,0.59212,0,0.91739,0.24037,1.0781,0.42188l-0.0664,0.60938c0,1.6597,1.352,3,3.0117,3s3-1.3403,3-3-1.3403-3.0312-3-3.0312z"/>
  <path d="m252.03-12.017-9.0027,4.5615,9,4.4722z" fill="#ef2929"/>
  <path d="m260.01-12.061,9.0027,4.5615-9,4.4722z" fill="#ef2929"/>
 </g>
</svg>
